/*
  C64 General MIDI Player (Interrupt Timing, Coarse Granularity)
  Platform: 8bitworkshop (C64 / cc65)
*/

#include <c64.h>
#include <6502.h>
#include <string.h>
#include <stdio.h>

/* -------------------------------------------------------------------------
   HARDWARE & MACROS
   ------------------------------------------------------------------------- */

#define SID_START(v, w) SID.v.ctrl = (w) | 0x01
#define SID_STOP(v, w)  SID.v.ctrl = (w)
#define SID_FREQ(v, f)  SID.v.freq = (f)
#define SID_AD(v, val)  SID.v.ad = (val)
#define SID_SR(v, val)  SID.v.sr = (val)
#define SID_PULSE(v, p) SID.v.pw = (p)

#define SID_TRI     0x10
#define SID_SAW     0x20
#define SID_PULSE_W 0x40
#define SID_NOISE   0x80

/* CIA1 Registers for Timer A */
#define CIA1_TA_LO (*(volatile unsigned char*)0xDC04)
#define CIA1_TA_HI (*(volatile unsigned char*)0xDC05)
#define CIA1_CRA   (*(volatile unsigned char*)0xDC0E)
#define CIA1_ICR   (*(volatile unsigned char*)0xDC0D)

/* Granularity: Number of MIDI ticks per Interrupt */
#define TICKS_PER_IRQ 4 

/* PAL Frequency Table */
const int note_table_pal[96] = {
    278,295,313,331,351,372,394,417,442,468,496,526,
    557,590,625,662,702,743,788,834,884,937,992,1051,
    1114,1180,1250,1325,1403,1487,1575,1669,1768,1873,1985,2103,
    2228,2360,2500,2649,2807,2973,3150,3338,3536,3746,3969,4205,
    4455,4720,5001,5298,5613,5947,6300,6675,7072,7493,7938,8410,
    8910,9440,10001,10596,11226,11894,12601,13350,14144,14985,15876,16820,
    17820,18880,20003,21192,22452,23787,25202,26700,28288,29970,31752,33640L,
    35641L,37760L,40005L,42384L,44904L,47574L,50403L,53401L,56576L,59940L,63504L,67280L
};

/* -------------------------------------------------------------------------
   TIMING STATE
   ------------------------------------------------------------------------- */
   
unsigned long mpqn = 500000; 
unsigned int ppqn = 96;      
volatile unsigned long master_tick = 0; 

/* Interrupt Handler (Called by IRQ) */
unsigned char irq_handler2(void) {
    /* Check if Timer A generated the interrupt */
    if (CIA1_ICR & 0x01) {
        master_tick += TICKS_PER_IRQ;
        return IRQ_HANDLED;
    }
    return IRQ_NOT_HANDLED;
}

void recalc_timing() {
    /* 
       Calculate Timer Latch.
       CyclesPerTick = MPQN / PPQN (approx 1us/cycle).
       Latch = CyclesPerTick * TICKS_PER_IRQ.
    */
    unsigned long cycles_per_tick = mpqn / ppqn;
    unsigned long total_cycles = cycles_per_tick * TICKS_PER_IRQ;
    unsigned int latch;

    /* Safety clamp for very fast tempos/high PPQN to prevent IRQ flooding */
    if (total_cycles < 2000) total_cycles = 2000; 
    if (total_cycles > 65535L) total_cycles = 65535L;
    
    latch = (unsigned int)total_cycles;

    /* Update hardware registers atomically */
    __asm__("sei");
    CIA1_TA_LO = latch & 0xFF;
    CIA1_TA_HI = latch >> 8;
    __asm__("cli");
}

/* Helper to read volatile long safely */
unsigned long get_master_tick() {
    unsigned long t;
    __asm__("sei");
    t = master_tick;
    __asm__("cli");
    return t;
}

/* -------------------------------------------------------------------------
   VOICE MANAGEMENT
   ------------------------------------------------------------------------- */

#define NUM_SID_VOICES 3
#define MAX_TRACKS 20

typedef struct {
    unsigned char note;       
    unsigned char channel;    
    unsigned char active;     
    unsigned long age;        /* Birth Timestamp */
    unsigned char waveform;   
} VoiceState;

VoiceState voices[NUM_SID_VOICES];

typedef struct {
    const unsigned char* ptr;
    unsigned char running_status;
    unsigned long absolute_event_time; 
    unsigned char finished;
} Track;

Track tracks[MAX_TRACKS];
unsigned char num_tracks = 0;
unsigned char channel_instrument[16];

void sid_init() {
    unsigned char i;
    SID.amp = 0x0F; 
    SID.flt_freq = 0;
    
    /* Reset Timer State */
    __asm__("sei");
    master_tick = 0;
    mpqn = 500000;
    CIA1_CRA = 0x00; /* Stop Timer A */
    CIA1_ICR = 0x7F; /* Disable all CIA interrupts */
    (void)CIA1_ICR;  /* Ack pending */
    __asm__("cli");

    for(i=0; i<NUM_SID_VOICES; ++i) {
        voices[i].active = 0;
        voices[i].age = 0;
        voices[i].note = 0;
        voices[i].channel = 255;
        voices[i].waveform = 0;
    }
    
    SID.v1.ctrl = 0;
    SID.v2.ctrl = 0;
    SID.v3.ctrl = 0;
}

void hw_note_on(unsigned char v_idx, int freq, unsigned char wave, unsigned char ad, unsigned char sr, int pulse) {
    voices[v_idx].waveform = wave;
    switch(v_idx) {
        case 0:
            SID_STOP(v1, wave); 
            SID_AD(v1, ad); SID_SR(v1, sr);
            if(wave & SID_PULSE_W) SID_PULSE(v1, pulse);
            SID_FREQ(v1, freq); SID_START(v1, wave);
            break;
        case 1:
            SID_STOP(v2, wave);
            SID_AD(v2, ad); SID_SR(v2, sr);
            if(wave & SID_PULSE_W) SID_PULSE(v2, pulse);
            SID_FREQ(v2, freq); SID_START(v2, wave);
            break;
        case 2:
            SID_STOP(v3, wave);
            SID_AD(v3, ad); SID_SR(v3, sr);
            if(wave & SID_PULSE_W) SID_PULSE(v3, pulse);
            SID_FREQ(v3, freq); SID_START(v3, wave);
            break;
    }
}

void hw_note_off(unsigned char v_idx) {
    unsigned char w = voices[v_idx].waveform;
    switch(v_idx) {
        case 0: SID_STOP(v1, w); break;
        case 1: SID_STOP(v2, w); break;
        case 2: SID_STOP(v3, w); break;
    }
}

/* -------------------------------------------------------------------------
   INSTRUMENT MAPPING
   ------------------------------------------------------------------------- */

void trigger_drum(unsigned char v_idx, unsigned char note) {
    unsigned char wf = SID_NOISE;
    unsigned char ad = 0x05; 
    unsigned char sr = 0x00;
    int freq = 2000;

    if (note == 35 || note == 36) { 
        wf = SID_TRI; freq = 300; ad = 0x08; 
    } else if (note == 42 || note == 44 || note == 46) { 
        freq = 8000;
    } else if (note == 49 || note == 57) { 
        freq = 6000; ad = 0x08; sr = 0x55;
    }
    hw_note_on(v_idx, freq, wf, ad, sr, 0);
}

void trigger_instrument(unsigned char v_idx, unsigned char note, unsigned char prog) {
    unsigned char wf;
    unsigned char ad, sr;
    int pulse = 0x800;
    int freq;
    int table_idx = note - 12; 

    if (table_idx < 0) table_idx = 0;
    else if (table_idx > 95) table_idx = 95;
    freq = note_table_pal[table_idx];

    if (prog < 8) { wf = SID_PULSE_W; pulse = 0x400; ad = 0x09; sr = 0x00; }
    else if (prog < 16) { wf = SID_TRI; ad = 0x09; sr = 0x00; }
    else if (prog < 24) { wf = SID_TRI; ad = 0x00; sr = 0xF0; }
    else if (prog < 32) { wf = SID_SAW; ad = 0x09; sr = 0x58; }
    else if (prog < 40) { wf = SID_PULSE_W; pulse = 0x200; ad = 0x19; sr = 0x95; }
    else if (prog < 56) { wf = SID_SAW; ad = 0x59; sr = 0xA8; }
    else { wf = SID_PULSE_W; pulse = 0x600; ad = 0x35; sr = 0xF5; }

    hw_note_on(v_idx, freq, wf, ad, sr, pulse);
}

/* -------------------------------------------------------------------------
   ALLOCATOR
   ------------------------------------------------------------------------- */

void play_note(unsigned char channel, unsigned char note, unsigned char velocity) {
    unsigned char v_idx = 255;
    register unsigned char i;
    unsigned long min_timestamp = 0xFFFFFFFF;
    unsigned long cur_time;
    //if(channel==15) return;
    for(i=0; i<NUM_SID_VOICES; ++i) {
        if(voices[i].active && voices[i].channel == channel && voices[i].note == note) {
            v_idx = i; break;
        }
    }

    if(v_idx == 255) {
        for(i=0; i<NUM_SID_VOICES; ++i) {
            if(!voices[i].active) { v_idx = i; break; }
        }
    }

    /* Reverse Age Stealing (Lowest Timestamp = Oldest) */
    if(v_idx == 255) {
        for(i=0; i<NUM_SID_VOICES; ++i) {
            if(voices[i].age < min_timestamp) {
                min_timestamp = voices[i].age;
                v_idx = i;
            }
        }
    }

    /* Get atomic time for birthdate */
    cur_time = get_master_tick();

    voices[v_idx].active = 1;
    voices[v_idx].note = note;
    voices[v_idx].channel = channel;
    voices[v_idx].age = cur_time;

    if (channel == 9) trigger_drum(v_idx, note);
    else trigger_instrument(v_idx, note, channel_instrument[channel]);
    
    (void)velocity;
}

void stop_note(unsigned char channel, unsigned char note) {
    register unsigned char i;
    for(i=0; i<NUM_SID_VOICES; ++i) {
        if(voices[i].active && voices[i].channel == channel && voices[i].note == note) {
            hw_note_off(i); 
            voices[i].active = 0; 
            return;
        }
    }
}

/* -------------------------------------------------------------------------
   MIDI PARSER
   ------------------------------------------------------------------------- */

const unsigned char midi_file[] = {
  0x4d, 0x54, 0x68, 0x64, 0x00, 0x00, 0x00, 0x06, 0x00, 0x01, 0x00, 0x03, 0x01, 0xe0, 0x4d, 0x54, 
  0x72, 0x6b, 0x00, 0x00, 0x00, 0x31, 0x00, 0xff, 0x03, 0x00, 0x00, 0xff, 0x58, 0x04, 0x04, 0x02, 
  0x18, 0x08, 0x00, 0xff, 0x58, 0x04, 0x04, 0x02, 0x18, 0x08, 0x00, 0xff, 0x58, 0x04, 0x04, 0x02, 
  0x18, 0x08, 0x00, 0xff, 0x58, 0x04, 0x04, 0x02, 0x18, 0x08, 0x00, 0xff, 0x51, 0x03, 0x06, 0x1a, 
  0x80, 0x87, 0xde, 0x00, 0xff, 0x2f, 0x00, 0x4d, 0x54, 0x72, 0x6b, 0x00, 0x00, 0x10, 0x92, 0x8b, 
  0x20, 0x90, 0x31, 0x5d, 0x50, 0x80, 0x31, 0x7f, 0x28, 0x90, 0x32, 0x5d, 0x50, 0x80, 0x32, 0x7f, 
  0x28, 0x90, 0x33, 0x5d, 0x50, 0x80, 0x33, 0x7f, 0x28, 0x90, 0x34, 0x5d, 0x50, 0x80, 0x34, 0x7f, 
  0x28, 0x90, 0x32, 0x5d, 0x50, 0x80, 0x32, 0x7f, 0x82, 0x18, 0x90, 0x32, 0x5d, 0x50, 0x80, 0x32, 
  0x7f, 0x81, 0x20, 0x90, 0x2d, 0x5d, 0x50, 0x80, 0x2d, 0x7f, 0x28, 0x90, 0x2f, 0x5d, 0x50, 0x80, 
  0x2f, 0x7f, 0x81, 0x20, 0x90, 0x36, 0x5d, 0x50, 0x80, 0x36, 0x7f, 0x82, 0x18, 0x90, 0x36, 0x5d, 
  0x50, 0x80, 0x36, 0x7f, 0x81, 0x20, 0x90, 0x35, 0x5d, 0x50, 0x80, 0x35, 0x7f, 0x28, 0x90, 0x32, 
  0x5d, 0x50, 0x80, 0x32, 0x7f, 0x81, 0x20, 0x90, 0x34, 0x5d, 0x50, 0x80, 0x34, 0x7f, 0x82, 0x18, 
  0x90, 0x34, 0x5d, 0x50, 0x80, 0x34, 0x7f, 0x81, 0x20, 0x90, 0x2d, 0x5d, 0x50, 0x80, 0x2d, 0x7f, 
  0x28, 0x90, 0x2f, 0x5d, 0x50, 0x80, 0x2f, 0x7f, 0x81, 0x20, 0x90, 0x34, 0x5d, 0x50, 0x80, 0x34, 
  0x7f, 0x82, 0x18, 0x90, 0x34, 0x5d, 0x50, 0x80, 0x34, 0x7f, 0x81, 0x20, 0x90, 0x2d, 0x5d, 0x50, 
  0x80, 0x2d, 0x7f, 0x28, 0x90, 0x2f, 0x5d, 0x50, 0x80, 0x2f, 0x7f, 0x81, 0x20, 0x90, 0x34, 0x5d, 
  0x50, 0x80, 0x34, 0x7f, 0x82, 0x18, 0x90, 0x34, 0x5d, 0x50, 0x80, 0x34, 0x7f, 0x81, 0x20, 0x90, 
  0x2d, 0x5d, 0x50, 0x80, 0x2d, 0x7f, 0x28, 0x90, 0x2f, 0x5d, 0x50, 0x80, 0x2f, 0x7f, 0x81, 0x20, 
  0x90, 0x34, 0x5d, 0x50, 0x80, 0x34, 0x7f, 0x82, 0x18, 0x90, 0x34, 0x5d, 0x50, 0x80, 0x34, 0x7f, 
  0x81, 0x20, 0x90, 0x2d, 0x5d, 0x50, 0x80, 0x2d, 0x7f, 0x28, 0x90, 0x2f, 0x5d, 0x50, 0x80, 0x2f, 
  0x7f, 0x81, 0x20, 0x90, 0x32, 0x5d, 0x50, 0x80, 0x32, 0x7f, 0x82, 0x18, 0x90, 0x32, 0x5d, 0x50, 
  0x80, 0x32, 0x7f, 0x81, 0x20, 0x90, 0x2d, 0x5d, 0x50, 0x80, 0x2d, 0x7f, 0x28, 0x90, 0x2f, 0x5d, 
  0x50, 0x80, 0x2f, 0x7f, 0x81, 0x20, 0x90, 0x32, 0x5d, 0x50, 0x80, 0x32, 0x7f, 0x82, 0x18, 0x90, 
  0x32, 0x5d, 0x50, 0x80, 0x32, 0x7f, 0x81, 0x20, 0x90, 0x2d, 0x5d, 0x50, 0x80, 0x2d, 0x7f, 0x28, 
  0x90, 0x2f, 0x5d, 0x50, 0x80, 0x2f, 0x7f, 0x81, 0x20, 0x90, 0x37, 0x5d, 0x50, 0x80, 0x37, 0x7f, 
  0x82, 0x18, 0x90, 0x37, 0x5d, 0x50, 0x80, 0x37, 0x7f, 0x81, 0x20, 0x90, 0x32, 0x5d, 0x50, 0x80, 
  0x32, 0x7f, 0x28, 0x90, 0x37, 0x5d, 0x50, 0x80, 0x37, 0x7f, 0x81, 0x20, 0x90, 0x38, 0x5d, 0x50, 
  0x80, 0x38, 0x7f, 0x82, 0x18, 0x90, 0x38, 0x5d, 0x50, 0x80, 0x38, 0x7f, 0x81, 0x20, 0x90, 0x34, 
  0x5d, 0x50, 0x80, 0x34, 0x7f, 0x28, 0x90, 0x38, 0x5d, 0x50, 0x80, 0x38, 0x7f, 0x81, 0x20, 0x90, 
  0x39, 0x5d, 0x50, 0x80, 0x39, 0x7f, 0x82, 0x18, 0x90, 0x39, 0x5d, 0x50, 0x80, 0x39, 0x7f, 0x81, 
  0x20, 0x90, 0x36, 0x5d, 0x50, 0x80, 0x36, 0x7f, 0x28, 0x90, 0x39, 0x5d, 0x50, 0x80, 0x39, 0x7f, 
  0x81, 0x20, 0x90, 0x3b, 0x5d, 0x50, 0x80, 0x3b, 0x7f, 0x82, 0x18, 0x90, 0x3b, 0x5d, 0x50, 0x80, 
  0x3b, 0x7f, 0x81, 0x20, 0x90, 0x36, 0x5d, 0x50, 0x80, 0x36, 0x7f, 0x28, 0x90, 0x33, 0x5d, 0x50, 
  0x80, 0x33, 0x7f, 0x81, 0x20, 0x90, 0x38, 0x5d, 0x50, 0x80, 0x38, 0x7f, 0x82, 0x18, 0x90, 0x38, 
  0x5d, 0x50, 0x80, 0x38, 0x7f, 0x81, 0x20, 0x90, 0x33, 0x5d, 0x50, 0x80, 0x33, 0x7f, 0x28, 0x90, 
  0x32, 0x5d, 0x50, 0x80, 0x32, 0x7f, 0x81, 0x20, 0x90, 0x31, 0x5d, 0x50, 0x80, 0x31, 0x7f, 0x82, 
  0x18, 0x90, 0x31, 0x5d, 0x50, 0x80, 0x31, 0x7f, 0x81, 0x20, 0x90, 0x31, 0x5d, 0x50, 0x80, 0x31, 
  0x7f, 0x28, 0x90, 0x33, 0x5d, 0x50, 0x80, 0x33, 0x7f, 0x81, 0x20, 0x90, 0x34, 0x5d, 0x50, 0x80, 
  0x34, 0x7f, 0x82, 0x18, 0x90, 0x34, 0x5d, 0x50, 0x80, 0x34, 0x7f, 0x81, 0x20, 0x90, 0x32, 0x5d, 
  0x50, 0x80, 0x32, 0x7f, 0x28, 0x90, 0x2f, 0x5d, 0x50, 0x80, 0x2f, 0x7f, 0x81, 0x20, 0x90, 0x2d, 
  0x5d, 0x50, 0x80, 0x2d, 0x7f, 0x82, 0x18, 0x90, 0x2d, 0x5d, 0x50, 0x80, 0x2d, 0x7f, 0x81, 0x20, 
  0x90, 0x2f, 0x5d, 0x50, 0x80, 0x2f, 0x7f, 0x28, 0x90, 0x31, 0x5d, 0x50, 0x80, 0x31, 0x7f, 0x81, 
  0x20, 0x90, 0x32, 0x5d, 0x50, 0x80, 0x32, 0x7f, 0x82, 0x18, 0x90, 0x32, 0x5d, 0x50, 0x80, 0x32, 
  0x7f, 0x81, 0x20, 0x90, 0x2d, 0x5d, 0x50, 0x80, 0x2d, 0x7f, 0x28, 0x90, 0x2f, 0x5d, 0x50, 0x80, 
  0x2f, 0x7f, 0x81, 0x20, 0x90, 0x36, 0x5d, 0x50, 0x80, 0x36, 0x7f, 0x82, 0x18, 0x90, 0x36, 0x5d, 
  0x50, 0x80, 0x36, 0x7f, 0x81, 0x20, 0x90, 0x35, 0x5d, 0x50, 0x80, 0x35, 0x7f, 0x28, 0x90, 0x32, 
  0x5d, 0x50, 0x80, 0x32, 0x7f, 0x81, 0x20, 0x90, 0x34, 0x5d, 0x50, 0x80, 0x34, 0x7f, 0x82, 0x18, 
  0x90, 0x34, 0x5d, 0x50, 0x80, 0x34, 0x7f, 0x81, 0x20, 0x90, 0x2d, 0x5d, 0x50, 0x80, 0x2d, 0x7f, 
  0x28, 0x90, 0x2f, 0x5d, 0x50, 0x80, 0x2f, 0x7f, 0x81, 0x20, 0x90, 0x34, 0x5d, 0x50, 0x80, 0x34, 
  0x7f, 0x82, 0x18, 0x90, 0x34, 0x5d, 0x50, 0x80, 0x34, 0x7f, 0x81, 0x20, 0x90, 0x2d, 0x5d, 0x50, 
  0x80, 0x2d, 0x7f, 0x28, 0x90, 0x2f, 0x5d, 0x50, 0x80, 0x2f, 0x7f, 0x81, 0x20, 0x90, 0x34, 0x5d, 
  0x50, 0x80, 0x34, 0x7f, 0x82, 0x18, 0x90, 0x34, 0x5d, 0x50, 0x80, 0x34, 0x7f, 0x81, 0x20, 0x90, 
  0x2d, 0x5d, 0x50, 0x80, 0x2d, 0x7f, 0x28, 0x90, 0x2f, 0x5d, 0x50, 0x80, 0x2f, 0x7f, 0x81, 0x20, 
  0x90, 0x34, 0x5d, 0x50, 0x80, 0x34, 0x7f, 0x82, 0x18, 0x90, 0x34, 0x5d, 0x50, 0x80, 0x34, 0x7f, 
  0x81, 0x20, 0x90, 0x2d, 0x5d, 0x50, 0x80, 0x2d, 0x7f, 0x28, 0x90, 0x2f, 0x5d, 0x50, 0x80, 0x2f, 
  0x7f, 0x81, 0x20, 0x90, 0x32, 0x5d, 0x50, 0x80, 0x32, 0x7f, 0x82, 0x18, 0x90, 0x32, 0x5d, 0x50, 
  0x80, 0x32, 0x7f, 0x81, 0x20, 0x90, 0x2d, 0x5d, 0x50, 0x80, 0x2d, 0x7f, 0x28, 0x90, 0x2f, 0x5d, 
  0x50, 0x80, 0x2f, 0x7f, 0x81, 0x20, 0x90, 0x32, 0x5d, 0x50, 0x80, 0x32, 0x7f, 0x82, 0x18, 0x90, 
  0x32, 0x5d, 0x50, 0x80, 0x32, 0x7f, 0x81, 0x20, 0x90, 0x2d, 0x5d, 0x50, 0x80, 0x2d, 0x7f, 0x28, 
  0x90, 0x2f, 0x5d, 0x50, 0x80, 0x2f, 0x7f, 0x81, 0x20, 0x90, 0x37, 0x5d, 0x50, 0x80, 0x37, 0x7f, 
  0x82, 0x18, 0x90, 0x37, 0x5d, 0x50, 0x80, 0x37, 0x7f, 0x81, 0x20, 0x90, 0x32, 0x5d, 0x50, 0x80, 
  0x32, 0x7f, 0x28, 0x90, 0x37, 0x5d, 0x50, 0x80, 0x37, 0x7f, 0x81, 0x20, 0x90, 0x38, 0x5d, 0x50, 
  0x80, 0x38, 0x7f, 0x82, 0x18, 0x90, 0x38, 0x5d, 0x50, 0x80, 0x38, 0x7f, 0x81, 0x20, 0x90, 0x34, 
  0x5d, 0x50, 0x80, 0x34, 0x7f, 0x28, 0x90, 0x38, 0x5d, 0x50, 0x80, 0x38, 0x7f, 0x81, 0x20, 0x90, 
  0x39, 0x5d, 0x50, 0x80, 0x39, 0x7f, 0x82, 0x18, 0x90, 0x39, 0x5d, 0x50, 0x80, 0x39, 0x7f, 0x81, 
  0x20, 0x90, 0x36, 0x5d, 0x50, 0x80, 0x36, 0x7f, 0x28, 0x90, 0x39, 0x5d, 0x50, 0x80, 0x39, 0x7f, 
  0x81, 0x20, 0x90, 0x3b, 0x5d, 0x50, 0x80, 0x3b, 0x7f, 0x82, 0x18, 0x90, 0x3b, 0x5d, 0x50, 0x80, 
  0x3b, 0x7f, 0x81, 0x20, 0x90, 0x36, 0x5d, 0x50, 0x80, 0x36, 0x7f, 0x28, 0x90, 0x33, 0x5d, 0x50, 
  0x80, 0x33, 0x7f, 0x81, 0x20, 0x90, 0x28, 0x5d, 0x50, 0x80, 0x28, 0x7f, 0x82, 0x18, 0x90, 0x28, 
  0x5d, 0x50, 0x80, 0x28, 0x7f, 0x81, 0x20, 0x90, 0x32, 0x5d, 0x50, 0x80, 0x32, 0x7f, 0x28, 0x90, 
  0x2f, 0x5d, 0x50, 0x80, 0x2f, 0x7f, 0x81, 0x20, 0x90, 0x2d, 0x5d, 0x50, 0x80, 0x2d, 0x7f, 0x82, 
  0x18, 0x90, 0x2d, 0x5d, 0x50, 0x80, 0x2d, 0x7f, 0x81, 0x20, 0x90, 0x2f, 0x5d, 0x50, 0x80, 0x2f, 
  0x7f, 0x28, 0x90, 0x31, 0x5d, 0x50, 0x80, 0x31, 0x7f, 0x81, 0x20, 0x90, 0x32, 0x5d, 0x50, 0x80, 
  0x32, 0x7f, 0x82, 0x18, 0x90, 0x32, 0x5d, 0x50, 0x80, 0x32, 0x7f, 0x81, 0x20, 0x90, 0x2d, 0x5d, 
  0x50, 0x80, 0x2d, 0x7f, 0x28, 0x90, 0x2f, 0x5d, 0x50, 0x80, 0x2f, 0x7f, 0x81, 0x20, 0x90, 0x32, 
  0x5d, 0x50, 0x80, 0x32, 0x7f, 0x81, 0x20, 0x90, 0x26, 0x5d, 0x50, 0x80, 0x26, 0x7f, 0x85, 0x00, 
  0x90, 0x2f, 0x5d, 0x50, 0x80, 0x2f, 0x7f, 0x82, 0x18, 0x90, 0x2f, 0x5d, 0x50, 0x80, 0x2f, 0x7f, 
  0x82, 0x18, 0x90, 0x2a, 0x5d, 0x50, 0x80, 0x2a, 0x7f, 0x81, 0x20, 0x90, 0x28, 0x5d, 0x50, 0x80, 
  0x28, 0x7f, 0x82, 0x18, 0x90, 0x28, 0x5d, 0x50, 0x80, 0x28, 0x7f, 0x82, 0x18, 0x90, 0x2c, 0x5d, 
  0x50, 0x80, 0x2c, 0x7f, 0x81, 0x20, 0x90, 0x2d, 0x5d, 0x50, 0x80, 0x2d, 0x7f, 0x82, 0x18, 0x90, 
  0x2d, 0x5d, 0x50, 0x80, 0x2d, 0x7f, 0x82, 0x18, 0x90, 0x28, 0x5d, 0x50, 0x80, 0x28, 0x7f, 0x81, 
  0x20, 0x90, 0x2d, 0x5d, 0x50, 0x80, 0x2d, 0x7f, 0x82, 0x18, 0x90, 0x2d, 0x5d, 0x50, 0x80, 0x2d, 
  0x7f, 0x82, 0x18, 0x90, 0x28, 0x5d, 0x50, 0x80, 0x28, 0x7f, 0x81, 0x20, 0x90, 0x31, 0x5d, 0x50, 
  0x80, 0x31, 0x7f, 0x82, 0x18, 0x90, 0x31, 0x5d, 0x50, 0x80, 0x31, 0x7f, 0x82, 0x18, 0x90, 0x2c, 
  0x5d, 0x50, 0x80, 0x2c, 0x7f, 0x81, 0x20, 0x90, 0x2a, 0x5d, 0x50, 0x80, 0x2a, 0x7f, 0x82, 0x18, 
  0x90, 0x2a, 0x5d, 0x50, 0x80, 0x2a, 0x7f, 0x82, 0x18, 0x90, 0x31, 0x5d, 0x50, 0x80, 0x31, 0x7f, 
  0x81, 0x20, 0x90, 0x2f, 0x5d, 0x50, 0x80, 0x2f, 0x7f, 0x82, 0x18, 0x90, 0x2f, 0x5d, 0x50, 0x80, 
  0x2f, 0x7f, 0x82, 0x18, 0x90, 0x2a, 0x5d, 0x50, 0x80, 0x2a, 0x7f, 0x81, 0x20, 0x90, 0x2f, 0x5d, 
  0x50, 0x80, 0x2f, 0x7f, 0x82, 0x18, 0x90, 0x2f, 0x5d, 0x50, 0x80, 0x2f, 0x7f, 0x82, 0x18, 0x90, 
  0x2a, 0x5d, 0x50, 0x80, 0x2a, 0x7f, 0x81, 0x20, 0x90, 0x36, 0x5d, 0x50, 0x80, 0x36, 0x7f, 0x82, 
  0x18, 0x90, 0x36, 0x5d, 0x50, 0x80, 0x36, 0x7f, 0x82, 0x18, 0x90, 0x36, 0x5d, 0x50, 0x80, 0x36, 
  0x7f, 0x81, 0x20, 0x90, 0x2f, 0x5d, 0x50, 0x80, 0x2f, 0x7f, 0x82, 0x18, 0x90, 0x2f, 0x5d, 0x50, 
  0x80, 0x2f, 0x7f, 0x82, 0x18, 0x90, 0x2f, 0x5d, 0x50, 0x80, 0x2f, 0x7f, 0x81, 0x20, 0x90, 0x36, 
  0x5d, 0x50, 0x80, 0x36, 0x7f, 0x82, 0x18, 0x90, 0x36, 0x5d, 0x50, 0x80, 0x36, 0x7f, 0x82, 0x18, 
  0x90, 0x36, 0x5d, 0x50, 0x80, 0x36, 0x7f, 0x81, 0x20, 0x90, 0x2f, 0x5d, 0x50, 0x80, 0x2f, 0x7f, 
  0x82, 0x18, 0x90, 0x2f, 0x5d, 0x50, 0x80, 0x2f, 0x7f, 0x82, 0x18, 0x90, 0x2f, 0x5d, 0x50, 0x80, 
  0x2f, 0x7f, 0x81, 0x20, 0x90, 0x34, 0x5d, 0x50, 0x80, 0x34, 0x7f, 0x82, 0x18, 0x90, 0x34, 0x5d, 
  0x50, 0x80, 0x34, 0x7f, 0x82, 0x18, 0x90, 0x34, 0x5d, 0x50, 0x80, 0x34, 0x7f, 0x81, 0x20, 0x90, 
  0x33, 0x5d, 0x50, 0x80, 0x33, 0x7f, 0x82, 0x18, 0x90, 0x33, 0x5d, 0x50, 0x80, 0x33, 0x7f, 0x82, 
  0x18, 0x90, 0x33, 0x5d, 0x50, 0x80, 0x33, 0x7f, 0x81, 0x20, 0x90, 0x36, 0x5d, 0x50, 0x80, 0x36, 
  0x7f, 0x82, 0x18, 0x90, 0x36, 0x5d, 0x50, 0x80, 0x36, 0x7f, 0x81, 0x20, 0x90, 0x2d, 0x5d, 0x50, 
  0x80, 0x2d, 0x7f, 0x28, 0x90, 0x31, 0x5d, 0x50, 0x80, 0x31, 0x7f, 0x81, 0x20, 0x90, 0x2f, 0x5d, 
  0x50, 0x80, 0x2f, 0x7f, 0x82, 0x18, 0x90, 0x2f, 0x5d, 0x50, 0x80, 0x2f, 0x7f, 0x81, 0x20, 0x90, 
  0x33, 0x5d, 0x50, 0x80, 0x33, 0x7f, 0x28, 0x90, 0x36, 0x5d, 0x50, 0x80, 0x36, 0x7f, 0x81, 0x20, 
  0x90, 0x34, 0x5d, 0x50, 0x80, 0x34, 0x7f, 0x82, 0x18, 0x90, 0x34, 0x5d, 0x50, 0x80, 0x34, 0x7f, 
  0x81, 0x20, 0x90, 0x2f, 0x5d, 0x50, 0x80, 0x2f, 0x7f, 0x28, 0x90, 0x31, 0x5d, 0x50, 0x80, 0x31, 
  0x7f, 0x81, 0x20, 0x90, 0x38, 0x5d, 0x50, 0x80, 0x38, 0x7f, 0x82, 0x18, 0x90, 0x38, 0x5d, 0x50, 
  0x80, 0x38, 0x7f, 0x81, 0x20, 0x90, 0x37, 0x5d, 0x50, 0x80, 0x37, 0x7f, 0x28, 0x90, 0x34, 0x5d, 
  0x50, 0x80, 0x34, 0x7f, 0x81, 0x20, 0x90, 0x36, 0x5d, 0x50, 0x80, 0x36, 0x7f, 0x82, 0x18, 0x90, 
  0x36, 0x5d, 0x50, 0x80, 0x36, 0x7f, 0x81, 0x20, 0x90, 0x2f, 0x5d, 0x50, 0x80, 0x2f, 0x7f, 0x28, 
  0x90, 0x31, 0x5d, 0x50, 0x80, 0x31, 0x7f, 0x81, 0x20, 0x90, 0x36, 0x5d, 0x50, 0x80, 0x36, 0x7f, 
  0x82, 0x18, 0x90, 0x36, 0x5d, 0x50, 0x80, 0x36, 0x7f, 0x81, 0x20, 0x90, 0x2f, 0x5d, 0x50, 0x80, 
  0x2f, 0x7f, 0x28, 0x90, 0x31, 0x5d, 0x50, 0x80, 0x31, 0x7f, 0x81, 0x20, 0x90, 0x36, 0x5d, 0x50, 
  0x80, 0x36, 0x7f, 0x82, 0x18, 0x90, 0x36, 0x5d, 0x50, 0x80, 0x36, 0x7f, 0x81, 0x20, 0x90, 0x2f, 
  0x5d, 0x50, 0x80, 0x2f, 0x7f, 0x28, 0x90, 0x31, 0x5d, 0x50, 0x80, 0x31, 0x7f, 0x81, 0x20, 0x90, 
  0x36, 0x5d, 0x50, 0x80, 0x36, 0x7f, 0x82, 0x18, 0x90, 0x36, 0x5d, 0x50, 0x80, 0x36, 0x7f, 0x81, 
  0x20, 0x90, 0x2f, 0x5d, 0x50, 0x80, 0x2f, 0x7f, 0x28, 0x90, 0x31, 0x5d, 0x50, 0x80, 0x31, 0x7f, 
  0x81, 0x20, 0x90, 0x34, 0x5d, 0x50, 0x80, 0x34, 0x7f, 0x82, 0x18, 0x90, 0x34, 0x5d, 0x50, 0x80, 
  0x34, 0x7f, 0x81, 0x20, 0x90, 0x2f, 0x5d, 0x50, 0x80, 0x2f, 0x7f, 0x28, 0x90, 0x31, 0x5d, 0x50, 
  0x80, 0x31, 0x7f, 0x81, 0x20, 0x90, 0x34, 0x5d, 0x50, 0x80, 0x34, 0x7f, 0x82, 0x18, 0x90, 0x34, 
  0x5d, 0x50, 0x80, 0x34, 0x7f, 0x81, 0x20, 0x90, 0x2f, 0x5d, 0x50, 0x80, 0x2f, 0x7f, 0x28, 0x90, 
  0x31, 0x5d, 0x50, 0x80, 0x31, 0x7f, 0x81, 0x20, 0x90, 0x39, 0x5d, 0x50, 0x80, 0x39, 0x7f, 0x82, 
  0x18, 0x90, 0x39, 0x5d, 0x50, 0x80, 0x39, 0x7f, 0x81, 0x20, 0x90, 0x34, 0x5d, 0x50, 0x80, 0x34, 
  0x7f, 0x28, 0x90, 0x39, 0x5d, 0x50, 0x80, 0x39, 0x7f, 0x81, 0x20, 0x90, 0x3a, 0x5d, 0x50, 0x80, 
  0x3a, 0x7f, 0x82, 0x18, 0x90, 0x3a, 0x5d, 0x50, 0x80, 0x3a, 0x7f, 0x81, 0x20, 0x90, 0x36, 0x5d, 
  0x50, 0x80, 0x36, 0x7f, 0x28, 0x90, 0x3a, 0x5d, 0x50, 0x80, 0x3a, 0x7f, 0x81, 0x20, 0x90, 0x3b, 
  0x5d, 0x50, 0x80, 0x3b, 0x7f, 0x82, 0x18, 0x90, 0x3b, 0x5d, 0x50, 0x80, 0x3b, 0x7f, 0x81, 0x20, 
  0x90, 0x38, 0x5d, 0x50, 0x80, 0x38, 0x7f, 0x28, 0x90, 0x3b, 0x5d, 0x50, 0x80, 0x3b, 0x7f, 0x81, 
  0x20, 0x90, 0x3d, 0x5d, 0x50, 0x80, 0x3d, 0x7f, 0x82, 0x18, 0x90, 0x3d, 0x5d, 0x50, 0x80, 0x3d, 
  0x7f, 0x81, 0x20, 0x90, 0x38, 0x5d, 0x50, 0x80, 0x38, 0x7f, 0x28, 0x90, 0x35, 0x5d, 0x50, 0x80, 
  0x35, 0x7f, 0x81, 0x20, 0x90, 0x2a, 0x5d, 0x50, 0x80, 0x2a, 0x7f, 0x82, 0x18, 0x90, 0x2a, 0x5d, 
  0x50, 0x80, 0x2a, 0x7f, 0x81, 0x20, 0x90, 0x34, 0x5d, 0x50, 0x80, 0x34, 0x7f, 0x28, 0x90, 0x31, 
  0x5d, 0x50, 0x80, 0x31, 0x7f, 0x81, 0x20, 0x90, 0x2f, 0x5d, 0x50, 0x80, 0x2f, 0x7f, 0x82, 0x18, 
  0x90, 0x2f, 0x5d, 0x50, 0x80, 0x2f, 0x7f, 0x81, 0x20, 0x90, 0x31, 0x5d, 0x50, 0x80, 0x31, 0x7f, 
  0x28, 0x90, 0x33, 0x5d, 0x50, 0x80, 0x33, 0x7f, 0x81, 0x20, 0x90, 0x34, 0x5d, 0x50, 0x80, 0x34, 
  0x7f, 0x82, 0x18, 0x90, 0x34, 0x5d, 0x50, 0x80, 0x34, 0x7f, 0x81, 0x20, 0x90, 0x2f, 0x5d, 0x50, 
  0x80, 0x2f, 0x7f, 0x28, 0x90, 0x31, 0x5d, 0x50, 0x80, 0x31, 0x7f, 0x81, 0x20, 0x90, 0x34, 0x5d, 
  0x50, 0x80, 0x34, 0x7f, 0x81, 0x20, 0x90, 0x3f, 0x5d, 0x50, 0x80, 0x3f, 0x7f, 0x81, 0x20, 0x90, 
  0x40, 0x5d, 0x50, 0x80, 0x40, 0x7f, 0x83, 0x10, 0x90, 0x32, 0x5d, 0x50, 0x80, 0x32, 0x7f, 0x82, 
  0x18, 0x90, 0x32, 0x5d, 0x50, 0x80, 0x32, 0x7f, 0x81, 0x20, 0x90, 0x2d, 0x5d, 0x50, 0x80, 0x2d, 
  0x7f, 0x28, 0x90, 0x2f, 0x5d, 0x50, 0x80, 0x2f, 0x7f, 0x81, 0x20, 0x90, 0x36, 0x5d, 0x50, 0x80, 
  0x36, 0x7f, 0x82, 0x18, 0x90, 0x36, 0x5d, 0x50, 0x80, 0x36, 0x7f, 0x81, 0x20, 0x90, 0x35, 0x5d, 
  0x50, 0x80, 0x35, 0x7f, 0x28, 0x90, 0x32, 0x5d, 0x50, 0x80, 0x32, 0x7f, 0x81, 0x20, 0x90, 0x34, 
  0x5d, 0x50, 0x80, 0x34, 0x7f, 0x82, 0x18, 0x90, 0x34, 0x5d, 0x50, 0x80, 0x34, 0x7f, 0x81, 0x20, 
  0x90, 0x2d, 0x5d, 0x50, 0x80, 0x2d, 0x7f, 0x28, 0x90, 0x2f, 0x5d, 0x50, 0x80, 0x2f, 0x7f, 0x81, 
  0x20, 0x90, 0x34, 0x5d, 0x50, 0x80, 0x34, 0x7f, 0x82, 0x18, 0x90, 0x34, 0x5d, 0x50, 0x80, 0x34, 
  0x7f, 0x81, 0x20, 0x90, 0x2d, 0x5d, 0x50, 0x80, 0x2d, 0x7f, 0x28, 0x90, 0x2f, 0x5d, 0x50, 0x80, 
  0x2f, 0x7f, 0x81, 0x20, 0x90, 0x34, 0x5d, 0x50, 0x80, 0x34, 0x7f, 0x82, 0x18, 0x90, 0x34, 0x5d, 
  0x50, 0x80, 0x34, 0x7f, 0x81, 0x20, 0x90, 0x2d, 0x5d, 0x50, 0x80, 0x2d, 0x7f, 0x28, 0x90, 0x2f, 
  0x5d, 0x50, 0x80, 0x2f, 0x7f, 0x81, 0x20, 0x90, 0x34, 0x5d, 0x50, 0x80, 0x34, 0x7f, 0x82, 0x18, 
  0x90, 0x34, 0x5d, 0x50, 0x80, 0x34, 0x7f, 0x81, 0x20, 0x90, 0x2d, 0x5d, 0x50, 0x80, 0x2d, 0x7f, 
  0x28, 0x90, 0x2f, 0x5d, 0x50, 0x80, 0x2f, 0x7f, 0x81, 0x20, 0x90, 0x32, 0x5d, 0x50, 0x80, 0x32, 
  0x7f, 0x82, 0x18, 0x90, 0x32, 0x5d, 0x50, 0x80, 0x32, 0x7f, 0x81, 0x20, 0x90, 0x2d, 0x5d, 0x50, 
  0x80, 0x2d, 0x7f, 0x28, 0x90, 0x2f, 0x5d, 0x50, 0x80, 0x2f, 0x7f, 0x81, 0x20, 0x90, 0x32, 0x5d, 
  0x50, 0x80, 0x32, 0x7f, 0x82, 0x18, 0x90, 0x32, 0x5d, 0x50, 0x80, 0x32, 0x7f, 0x81, 0x20, 0x90, 
  0x2d, 0x5d, 0x50, 0x80, 0x2d, 0x7f, 0x28, 0x90, 0x2f, 0x5d, 0x50, 0x80, 0x2f, 0x7f, 0x81, 0x20, 
  0x90, 0x37, 0x5d, 0x50, 0x80, 0x37, 0x7f, 0x82, 0x18, 0x90, 0x37, 0x5d, 0x50, 0x80, 0x37, 0x7f, 
  0x81, 0x20, 0x90, 0x32, 0x5d, 0x50, 0x80, 0x32, 0x7f, 0x28, 0x90, 0x37, 0x5d, 0x50, 0x80, 0x37, 
  0x7f, 0x81, 0x20, 0x90, 0x38, 0x5d, 0x50, 0x80, 0x38, 0x7f, 0x82, 0x18, 0x90, 0x38, 0x5d, 0x50, 
  0x80, 0x38, 0x7f, 0x81, 0x20, 0x90, 0x34, 0x5d, 0x50, 0x80, 0x34, 0x7f, 0x28, 0x90, 0x38, 0x5d, 
  0x50, 0x80, 0x38, 0x7f, 0x81, 0x20, 0x90, 0x39, 0x5d, 0x50, 0x80, 0x39, 0x7f, 0x82, 0x18, 0x90, 
  0x39, 0x5d, 0x50, 0x80, 0x39, 0x7f, 0x81, 0x20, 0x90, 0x36, 0x5d, 0x50, 0x80, 0x36, 0x7f, 0x28, 
  0x90, 0x39, 0x5d, 0x50, 0x80, 0x39, 0x7f, 0x81, 0x20, 0x90, 0x3b, 0x5d, 0x50, 0x80, 0x3b, 0x7f, 
  0x82, 0x18, 0x90, 0x3b, 0x5d, 0x50, 0x80, 0x3b, 0x7f, 0x81, 0x20, 0x90, 0x36, 0x5d, 0x50, 0x80, 
  0x36, 0x7f, 0x28, 0x90, 0x33, 0x5d, 0x50, 0x80, 0x33, 0x7f, 0x81, 0x20, 0x90, 0x38, 0x5d, 0x50, 
  0x80, 0x38, 0x7f, 0x82, 0x18, 0x90, 0x38, 0x5d, 0x50, 0x80, 0x38, 0x7f, 0x81, 0x20, 0x90, 0x33, 
  0x5d, 0x50, 0x80, 0x33, 0x7f, 0x28, 0x90, 0x32, 0x5d, 0x50, 0x80, 0x32, 0x7f, 0x81, 0x20, 0x90, 
  0x31, 0x5d, 0x50, 0x80, 0x31, 0x7f, 0x82, 0x18, 0x90, 0x31, 0x5d, 0x50, 0x80, 0x31, 0x7f, 0x81, 
  0x20, 0x90, 0x31, 0x5d, 0x50, 0x80, 0x31, 0x7f, 0x28, 0x90, 0x33, 0x5d, 0x50, 0x80, 0x33, 0x7f, 
  0x81, 0x20, 0x90, 0x34, 0x5d, 0x50, 0x80, 0x34, 0x7f, 0x82, 0x18, 0x90, 0x34, 0x5d, 0x50, 0x80, 
  0x34, 0x7f, 0x81, 0x20, 0x90, 0x32, 0x5d, 0x50, 0x80, 0x32, 0x7f, 0x28, 0x90, 0x2f, 0x5d, 0x50, 
  0x80, 0x2f, 0x7f, 0x81, 0x20, 0x90, 0x2d, 0x5d, 0x50, 0x80, 0x2d, 0x7f, 0x82, 0x18, 0x90, 0x2d, 
  0x5d, 0x50, 0x80, 0x2d, 0x7f, 0x81, 0x20, 0x90, 0x2f, 0x5d, 0x50, 0x80, 0x2f, 0x7f, 0x28, 0x90, 
  0x31, 0x5d, 0x50, 0x80, 0x31, 0x7f, 0x81, 0x20, 0x90, 0x32, 0x5d, 0x50, 0x80, 0x32, 0x7f, 0x82, 
  0x18, 0x90, 0x32, 0x5d, 0x50, 0x80, 0x32, 0x7f, 0x81, 0x20, 0x90, 0x2d, 0x5d, 0x50, 0x80, 0x2d, 
  0x7f, 0x28, 0x90, 0x2f, 0x5d, 0x50, 0x80, 0x2f, 0x7f, 0x81, 0x20, 0x90, 0x36, 0x5d, 0x50, 0x80, 
  0x36, 0x7f, 0x82, 0x18, 0x90, 0x36, 0x5d, 0x50, 0x80, 0x36, 0x7f, 0x81, 0x20, 0x90, 0x35, 0x5d, 
  0x50, 0x80, 0x35, 0x7f, 0x28, 0x90, 0x32, 0x5d, 0x50, 0x80, 0x32, 0x7f, 0x81, 0x20, 0x90, 0x34, 
  0x5d, 0x50, 0x80, 0x34, 0x7f, 0x82, 0x18, 0x90, 0x34, 0x5d, 0x50, 0x80, 0x34, 0x7f, 0x81, 0x20, 
  0x90, 0x2d, 0x5d, 0x50, 0x80, 0x2d, 0x7f, 0x28, 0x90, 0x2f, 0x5d, 0x50, 0x80, 0x2f, 0x7f, 0x81, 
  0x20, 0x90, 0x34, 0x5d, 0x50, 0x80, 0x34, 0x7f, 0x82, 0x18, 0x90, 0x34, 0x5d, 0x50, 0x80, 0x34, 
  0x7f, 0x81, 0x20, 0x90, 0x2d, 0x5d, 0x50, 0x80, 0x2d, 0x7f, 0x28, 0x90, 0x2f, 0x5d, 0x50, 0x80, 
  0x2f, 0x7f, 0x81, 0x20, 0x90, 0x34, 0x5d, 0x50, 0x80, 0x34, 0x7f, 0x82, 0x18, 0x90, 0x34, 0x5d, 
  0x50, 0x80, 0x34, 0x7f, 0x81, 0x20, 0x90, 0x2d, 0x5d, 0x50, 0x80, 0x2d, 0x7f, 0x28, 0x90, 0x2f, 
  0x5d, 0x50, 0x80, 0x2f, 0x7f, 0x81, 0x20, 0x90, 0x34, 0x5d, 0x50, 0x80, 0x34, 0x7f, 0x82, 0x18, 
  0x90, 0x34, 0x5d, 0x50, 0x80, 0x34, 0x7f, 0x81, 0x20, 0x90, 0x2d, 0x5d, 0x50, 0x80, 0x2d, 0x7f, 
  0x28, 0x90, 0x2f, 0x5d, 0x50, 0x80, 0x2f, 0x7f, 0x81, 0x20, 0x90, 0x32, 0x5d, 0x50, 0x80, 0x32, 
  0x7f, 0x82, 0x18, 0x90, 0x32, 0x5d, 0x50, 0x80, 0x32, 0x7f, 0x81, 0x20, 0x90, 0x2d, 0x5d, 0x50, 
  0x80, 0x2d, 0x7f, 0x28, 0x90, 0x2f, 0x5d, 0x50, 0x80, 0x2f, 0x7f, 0x81, 0x20, 0x90, 0x32, 0x5d, 
  0x50, 0x80, 0x32, 0x7f, 0x82, 0x18, 0x90, 0x32, 0x5d, 0x50, 0x80, 0x32, 0x7f, 0x81, 0x20, 0x90, 
  0x2d, 0x5d, 0x50, 0x80, 0x2d, 0x7f, 0x28, 0x90, 0x2f, 0x5d, 0x50, 0x80, 0x2f, 0x7f, 0x81, 0x20, 
  0x90, 0x37, 0x5d, 0x50, 0x80, 0x37, 0x7f, 0x82, 0x18, 0x90, 0x37, 0x5d, 0x50, 0x80, 0x37, 0x7f, 
  0x81, 0x20, 0x90, 0x32, 0x5d, 0x50, 0x80, 0x32, 0x7f, 0x28, 0x90, 0x37, 0x5d, 0x50, 0x80, 0x37, 
  0x7f, 0x81, 0x20, 0x90, 0x38, 0x5d, 0x50, 0x80, 0x38, 0x7f, 0x82, 0x18, 0x90, 0x38, 0x5d, 0x50, 
  0x80, 0x38, 0x7f, 0x81, 0x20, 0x90, 0x34, 0x5d, 0x50, 0x80, 0x34, 0x7f, 0x28, 0x90, 0x38, 0x5d, 
  0x50, 0x80, 0x38, 0x7f, 0x81, 0x20, 0x90, 0x39, 0x5d, 0x50, 0x80, 0x39, 0x7f, 0x82, 0x18, 0x90, 
  0x39, 0x5d, 0x50, 0x80, 0x39, 0x7f, 0x81, 0x20, 0x90, 0x36, 0x5d, 0x50, 0x80, 0x36, 0x7f, 0x28, 
  0x90, 0x39, 0x5d, 0x50, 0x80, 0x39, 0x7f, 0x81, 0x20, 0x90, 0x3b, 0x5d, 0x50, 0x80, 0x3b, 0x7f, 
  0x82, 0x18, 0x90, 0x3b, 0x5d, 0x50, 0x80, 0x3b, 0x7f, 0x81, 0x20, 0x90, 0x36, 0x5d, 0x50, 0x80, 
  0x36, 0x7f, 0x28, 0x90, 0x33, 0x5d, 0x50, 0x80, 0x33, 0x7f, 0x81, 0x20, 0x90, 0x28, 0x5d, 0x50, 
  0x80, 0x28, 0x7f, 0x82, 0x18, 0x90, 0x28, 0x5d, 0x50, 0x80, 0x28, 0x7f, 0x81, 0x20, 0x90, 0x32, 
  0x5d, 0x50, 0x80, 0x32, 0x7f, 0x28, 0x90, 0x2f, 0x5d, 0x50, 0x80, 0x2f, 0x7f, 0x81, 0x20, 0x90, 
  0x2d, 0x5d, 0x50, 0x80, 0x2d, 0x7f, 0x82, 0x18, 0x90, 0x2d, 0x5d, 0x50, 0x80, 0x2d, 0x7f, 0x81, 
  0x20, 0x90, 0x2f, 0x5d, 0x50, 0x80, 0x2f, 0x7f, 0x28, 0x90, 0x31, 0x5d, 0x50, 0x80, 0x31, 0x7f, 
  0x81, 0x20, 0x90, 0x32, 0x5d, 0x50, 0x80, 0x32, 0x7f, 0x82, 0x18, 0x90, 0x32, 0x5d, 0x50, 0x80, 
  0x32, 0x7f, 0x81, 0x20, 0x90, 0x2d, 0x5d, 0x50, 0x80, 0x2d, 0x7f, 0x28, 0x90, 0x2f, 0x5d, 0x50, 
  0x80, 0x2f, 0x7f, 0x81, 0x20, 0x90, 0x32, 0x5d, 0x50, 0x80, 0x32, 0x7f, 0x81, 0x20, 0x90, 0x26, 
  0x5d, 0x50, 0x80, 0x26, 0x7f, 0x85, 0x00, 0x90, 0x2f, 0x5d, 0x50, 0x80, 0x2f, 0x7f, 0x82, 0x18, 
  0x90, 0x2f, 0x5d, 0x50, 0x80, 0x2f, 0x7f, 0x82, 0x18, 0x90, 0x2a, 0x5d, 0x50, 0x80, 0x2a, 0x7f, 
  0x81, 0x20, 0x90, 0x28, 0x5d, 0x50, 0x80, 0x28, 0x7f, 0x82, 0x18, 0x90, 0x28, 0x5d, 0x50, 0x80, 
  0x28, 0x7f, 0x82, 0x18, 0x90, 0x2c, 0x5d, 0x50, 0x80, 0x2c, 0x7f, 0x81, 0x20, 0x90, 0x2d, 0x5d, 
  0x50, 0x80, 0x2d, 0x7f, 0x82, 0x18, 0x90, 0x2d, 0x5d, 0x50, 0x80, 0x2d, 0x7f, 0x82, 0x18, 0x90, 
  0x28, 0x5d, 0x50, 0x80, 0x28, 0x7f, 0x81, 0x20, 0x90, 0x2d, 0x5d, 0x50, 0x80, 0x2d, 0x7f, 0x82, 
  0x18, 0x90, 0x2d, 0x5d, 0x50, 0x80, 0x2d, 0x7f, 0x82, 0x18, 0x90, 0x28, 0x5d, 0x50, 0x80, 0x28, 
  0x7f, 0x81, 0x20, 0x90, 0x31, 0x5d, 0x50, 0x80, 0x31, 0x7f, 0x82, 0x18, 0x90, 0x31, 0x5d, 0x50, 
  0x80, 0x31, 0x7f, 0x82, 0x18, 0x90, 0x2c, 0x5d, 0x50, 0x80, 0x2c, 0x7f, 0x81, 0x20, 0x90, 0x2a, 
  0x5d, 0x50, 0x80, 0x2a, 0x7f, 0x82, 0x18, 0x90, 0x2a, 0x5d, 0x50, 0x80, 0x2a, 0x7f, 0x82, 0x18, 
  0x90, 0x31, 0x5d, 0x50, 0x80, 0x31, 0x7f, 0x81, 0x20, 0x90, 0x2f, 0x5d, 0x50, 0x80, 0x2f, 0x7f, 
  0x82, 0x18, 0x90, 0x2f, 0x5d, 0x50, 0x80, 0x2f, 0x7f, 0x82, 0x18, 0x90, 0x2a, 0x5d, 0x50, 0x80, 
  0x2a, 0x7f, 0x81, 0x20, 0x90, 0x2f, 0x5d, 0x50, 0x80, 0x2f, 0x7f, 0x82, 0x18, 0x90, 0x2f, 0x5d, 
  0x50, 0x80, 0x2f, 0x7f, 0x82, 0x18, 0x90, 0x2a, 0x5d, 0x50, 0x80, 0x2a, 0x7f, 0x81, 0x20, 0x90, 
  0x36, 0x5d, 0x50, 0x80, 0x36, 0x7f, 0x82, 0x18, 0x90, 0x36, 0x5d, 0x50, 0x80, 0x36, 0x7f, 0x82, 
  0x18, 0x90, 0x36, 0x5d, 0x50, 0x80, 0x36, 0x7f, 0x81, 0x20, 0x90, 0x2f, 0x5d, 0x50, 0x80, 0x2f, 
  0x7f, 0x82, 0x18, 0x90, 0x2f, 0x5d, 0x50, 0x80, 0x2f, 0x7f, 0x82, 0x18, 0x90, 0x2f, 0x5d, 0x50, 
  0x80, 0x2f, 0x7f, 0x81, 0x20, 0x90, 0x36, 0x5d, 0x50, 0x80, 0x36, 0x7f, 0x82, 0x18, 0x90, 0x36, 
  0x5d, 0x50, 0x80, 0x36, 0x7f, 0x82, 0x18, 0x90, 0x36, 0x5d, 0x50, 0x80, 0x36, 0x7f, 0x81, 0x20, 
  0x90, 0x2f, 0x5d, 0x50, 0x80, 0x2f, 0x7f, 0x82, 0x18, 0x90, 0x2f, 0x5d, 0x50, 0x80, 0x2f, 0x7f, 
  0x82, 0x18, 0x90, 0x2f, 0x5d, 0x50, 0x80, 0x2f, 0x7f, 0x81, 0x20, 0x90, 0x34, 0x5d, 0x50, 0x80, 
  0x34, 0x7f, 0x82, 0x18, 0x90, 0x34, 0x5d, 0x50, 0x80, 0x34, 0x7f, 0x82, 0x18, 0x90, 0x34, 0x5d, 
  0x50, 0x80, 0x34, 0x7f, 0x81, 0x20, 0x90, 0x33, 0x5d, 0x50, 0x80, 0x33, 0x7f, 0x82, 0x18, 0x90, 
  0x33, 0x5d, 0x50, 0x80, 0x33, 0x7f, 0x82, 0x18, 0x90, 0x33, 0x5d, 0x50, 0x80, 0x33, 0x7f, 0x81, 
  0x20, 0x90, 0x36, 0x5d, 0x50, 0x80, 0x36, 0x7f, 0x82, 0x18, 0x90, 0x36, 0x5d, 0x50, 0x80, 0x36, 
  0x7f, 0x81, 0x20, 0x90, 0x2d, 0x5d, 0x50, 0x80, 0x2d, 0x7f, 0x28, 0x90, 0x31, 0x5d, 0x50, 0x80, 
  0x31, 0x7f, 0x81, 0x20, 0x90, 0x2f, 0x5d, 0x50, 0x80, 0x2f, 0x7f, 0x82, 0x18, 0x90, 0x2f, 0x5d, 
  0x50, 0x80, 0x2f, 0x7f, 0x81, 0x20, 0x90, 0x33, 0x5d, 0x50, 0x80, 0x33, 0x7f, 0x28, 0x90, 0x36, 
  0x5d, 0x50, 0x80, 0x36, 0x7f, 0x81, 0x20, 0x90, 0x34, 0x5d, 0x50, 0x80, 0x34, 0x7f, 0x82, 0x18, 
  0x90, 0x34, 0x5d, 0x50, 0x80, 0x34, 0x7f, 0x81, 0x20, 0x90, 0x2f, 0x5d, 0x50, 0x80, 0x2f, 0x7f, 
  0x28, 0x90, 0x31, 0x5d, 0x50, 0x80, 0x31, 0x7f, 0x81, 0x20, 0x90, 0x38, 0x5d, 0x50, 0x80, 0x38, 
  0x7f, 0x82, 0x18, 0x90, 0x38, 0x5d, 0x50, 0x80, 0x38, 0x7f, 0x81, 0x20, 0x90, 0x37, 0x5d, 0x50, 
  0x80, 0x37, 0x7f, 0x28, 0x90, 0x34, 0x5d, 0x50, 0x80, 0x34, 0x7f, 0x81, 0x20, 0x90, 0x36, 0x5d, 
  0x50, 0x80, 0x36, 0x7f, 0x82, 0x18, 0x90, 0x36, 0x5d, 0x50, 0x80, 0x36, 0x7f, 0x81, 0x20, 0x90, 
  0x2f, 0x5d, 0x50, 0x80, 0x2f, 0x7f, 0x28, 0x90, 0x31, 0x5d, 0x50, 0x80, 0x31, 0x7f, 0x81, 0x20, 
  0x90, 0x36, 0x5d, 0x50, 0x80, 0x36, 0x7f, 0x82, 0x18, 0x90, 0x36, 0x5d, 0x50, 0x80, 0x36, 0x7f, 
  0x81, 0x20, 0x90, 0x2f, 0x5d, 0x50, 0x80, 0x2f, 0x7f, 0x28, 0x90, 0x31, 0x5d, 0x50, 0x80, 0x31, 
  0x7f, 0x81, 0x20, 0x90, 0x36, 0x5d, 0x50, 0x80, 0x36, 0x7f, 0x82, 0x18, 0x90, 0x36, 0x5d, 0x50, 
  0x80, 0x36, 0x7f, 0x81, 0x20, 0x90, 0x2f, 0x5d, 0x50, 0x80, 0x2f, 0x7f, 0x28, 0x90, 0x31, 0x5d, 
  0x50, 0x80, 0x31, 0x7f, 0x81, 0x20, 0x90, 0x36, 0x5d, 0x50, 0x80, 0x36, 0x7f, 0x82, 0x18, 0x90, 
  0x36, 0x5d, 0x50, 0x80, 0x36, 0x7f, 0x81, 0x20, 0x90, 0x2f, 0x5d, 0x50, 0x80, 0x2f, 0x7f, 0x28, 
  0x90, 0x31, 0x5d, 0x50, 0x80, 0x31, 0x7f, 0x81, 0x20, 0x90, 0x34, 0x5d, 0x50, 0x80, 0x34, 0x7f, 
  0x82, 0x18, 0x90, 0x34, 0x5d, 0x50, 0x80, 0x34, 0x7f, 0x81, 0x20, 0x90, 0x2f, 0x5d, 0x50, 0x80, 
  0x2f, 0x7f, 0x28, 0x90, 0x31, 0x5d, 0x50, 0x80, 0x31, 0x7f, 0x81, 0x20, 0x90, 0x34, 0x5d, 0x50, 
  0x80, 0x34, 0x7f, 0x82, 0x18, 0x90, 0x34, 0x5d, 0x50, 0x80, 0x34, 0x7f, 0x81, 0x20, 0x90, 0x2f, 
  0x5d, 0x50, 0x80, 0x2f, 0x7f, 0x28, 0x90, 0x31, 0x5d, 0x50, 0x80, 0x31, 0x7f, 0x81, 0x20, 0x90, 
  0x39, 0x5d, 0x50, 0x80, 0x39, 0x7f, 0x82, 0x18, 0x90, 0x39, 0x5d, 0x50, 0x80, 0x39, 0x7f, 0x81, 
  0x20, 0x90, 0x34, 0x5d, 0x50, 0x80, 0x34, 0x7f, 0x28, 0x90, 0x39, 0x5d, 0x50, 0x80, 0x39, 0x7f, 
  0x81, 0x20, 0x90, 0x3a, 0x5d, 0x50, 0x80, 0x3a, 0x7f, 0x82, 0x18, 0x90, 0x3a, 0x5d, 0x50, 0x80, 
  0x3a, 0x7f, 0x81, 0x20, 0x90, 0x36, 0x5d, 0x50, 0x80, 0x36, 0x7f, 0x28, 0x90, 0x3a, 0x5d, 0x50, 
  0x80, 0x3a, 0x7f, 0x81, 0x20, 0x90, 0x3b, 0x5d, 0x50, 0x80, 0x3b, 0x7f, 0x82, 0x18, 0x90, 0x3b, 
  0x5d, 0x50, 0x80, 0x3b, 0x7f, 0x81, 0x20, 0x90, 0x38, 0x5d, 0x50, 0x80, 0x38, 0x7f, 0x28, 0x90, 
  0x3b, 0x5d, 0x50, 0x80, 0x3b, 0x7f, 0x81, 0x20, 0x90, 0x3d, 0x5d, 0x50, 0x80, 0x3d, 0x7f, 0x82, 
  0x18, 0x90, 0x3d, 0x5d, 0x50, 0x80, 0x3d, 0x7f, 0x81, 0x20, 0x90, 0x38, 0x5d, 0x50, 0x80, 0x38, 
  0x7f, 0x28, 0x90, 0x35, 0x5d, 0x50, 0x80, 0x35, 0x7f, 0x81, 0x20, 0x90, 0x2a, 0x5d, 0x50, 0x80, 
  0x2a, 0x7f, 0x82, 0x18, 0x90, 0x2a, 0x5d, 0x50, 0x80, 0x2a, 0x7f, 0x81, 0x20, 0x90, 0x34, 0x5d, 
  0x50, 0x80, 0x34, 0x7f, 0x28, 0x90, 0x31, 0x5d, 0x50, 0x80, 0x31, 0x7f, 0x81, 0x20, 0x90, 0x2f, 
  0x5d, 0x50, 0x80, 0x2f, 0x7f, 0x82, 0x18, 0x90, 0x2f, 0x5d, 0x50, 0x80, 0x2f, 0x7f, 0x81, 0x20, 
  0x90, 0x31, 0x5d, 0x50, 0x80, 0x31, 0x7f, 0x28, 0x90, 0x33, 0x5d, 0x50, 0x80, 0x33, 0x7f, 0x81, 
  0x20, 0x90, 0x34, 0x5d, 0x50, 0x80, 0x34, 0x7f, 0x82, 0x18, 0x90, 0x34, 0x5d, 0x50, 0x80, 0x34, 
  0x7f, 0x81, 0x20, 0x90, 0x2f, 0x5d, 0x50, 0x80, 0x2f, 0x7f, 0x28, 0x90, 0x31, 0x5d, 0x50, 0x80, 
  0x31, 0x7f, 0x81, 0x20, 0x90, 0x34, 0x5d, 0x50, 0x80, 0x34, 0x7f, 0x81, 0x20, 0x90, 0x3f, 0x5d, 
  0x50, 0x80, 0x3f, 0x7f, 0x81, 0x20, 0x90, 0x40, 0x5d, 0x50, 0x80, 0x40, 0x7f, 0x00, 0xff, 0x2f, 
  0x00, 0x4d, 0x54, 0x72, 0x6b, 0x00, 0x00, 0x0b, 0x07, 0x00, 0xff, 0x03, 0x00, 0x00, 0x90, 0x3d, 
  0x5d, 0x00, 0x45, 0x5e, 0x78, 0x80, 0x3d, 0x7f, 0x00, 0x45, 0x7f, 0x00, 0x90, 0x3d, 0x5d, 0x00, 
  0x45, 0x5e, 0x78, 0x80, 0x3d, 0x7f, 0x00, 0x45, 0x7f, 0x78, 0x90, 0x3d, 0x5d, 0x00, 0x45, 0x5e, 
  0x78, 0x80, 0x3d, 0x7f, 0x00, 0x45, 0x7f, 0x00, 0x90, 0x3e, 0x5d, 0x00, 0x47, 0x5e, 0x78, 0x80, 
  0x3e, 0x7f, 0x00, 0x47, 0x7f, 0x78, 0x90, 0x3f, 0x5d, 0x00, 0x48, 0x5e, 0x78, 0x80, 0x3f, 0x7f, 
  0x00, 0x48, 0x7f, 0x78, 0x90, 0x40, 0x5d, 0x00, 0x49, 0x5e, 0x78, 0x80, 0x40, 0x7f, 0x00, 0x49, 
  0x7f, 0x82, 0x68, 0x90, 0x45, 0x5e, 0x78, 0x80, 0x45, 0x7f, 0x00, 0x90, 0x47, 0x5e, 0x78, 0x80, 
  0x47, 0x7f, 0x00, 0x90, 0x48, 0x5e, 0x78, 0x80, 0x48, 0x7f, 0x00, 0x90, 0x49, 0x5e, 0x78, 0x80, 
  0x49, 0x7f, 0x00, 0x90, 0x4a, 0x5e, 0x81, 0x70, 0x80, 0x4a, 0x7f, 0x81, 0x70, 0x90, 0x4e, 0x5e, 
  0x81, 0x70, 0x80, 0x4e, 0x7f, 0x81, 0x70, 0x90, 0x51, 0x5e, 0x81, 0x70, 0x80, 0x51, 0x7f, 0x81, 
  0x70, 0x90, 0x50, 0x5e, 0x81, 0x70, 0x80, 0x50, 0x7f, 0x81, 0x70, 0x90, 0x4f, 0x5e, 0x81, 0x70, 
  0x80, 0x4f, 0x7f, 0x81, 0x70, 0x90, 0x4c, 0x5e, 0x78, 0x80, 0x4c, 0x7f, 0x78, 0x90, 0x49, 0x5e, 
  0x85, 0x50, 0x80, 0x49, 0x7f, 0x85, 0x50, 0x90, 0x39, 0x5e, 0x78, 0x80, 0x39, 0x7f, 0x78, 0x90, 
  0x38, 0x5e, 0x78, 0x80, 0x38, 0x7f, 0x78, 0x90, 0x39, 0x5e, 0x78, 0x80, 0x39, 0x7f, 0x78, 0x90, 
  0x40, 0x5e, 0x78, 0x80, 0x40, 0x7f, 0x78, 0x90, 0x40, 0x5e, 0x81, 0x70, 0x80, 0x40, 0x7f, 0x81, 
  0x70, 0x90, 0x43, 0x5e, 0x78, 0x80, 0x43, 0x7f, 0x78, 0x90, 0x42, 0x5e, 0x78, 0x80, 0x42, 0x7f, 
  0x78, 0x90, 0x3e, 0x5e, 0x78, 0x80, 0x3e, 0x7f, 0x78, 0x90, 0x3b, 0x5e, 0x78, 0x80, 0x3b, 0x7f, 
  0x78, 0x90, 0x39, 0x5e, 0x83, 0x60, 0x80, 0x39, 0x7f, 0x85, 0x50, 0x90, 0x3b, 0x5e, 0x78, 0x80, 
  0x3b, 0x7f, 0x78, 0x90, 0x3a, 0x5e, 0x78, 0x80, 0x3a, 0x7f, 0x78, 0x90, 0x3b, 0x5e, 0x78, 0x80, 
  0x3b, 0x7f, 0x78, 0x90, 0x3e, 0x5e, 0x81, 0x70, 0x80, 0x3e, 0x7f, 0x81, 0x70, 0x90, 0x3e, 0x5e, 
  0x81, 0x70, 0x80, 0x3e, 0x7f, 0x00, 0x90, 0x40, 0x5e, 0x82, 0x68, 0x80, 0x40, 0x7f, 0x78, 0x90, 
  0x42, 0x5e, 0x78, 0x80, 0x42, 0x7f, 0x78, 0x90, 0x41, 0x5e, 0x78, 0x80, 0x41, 0x7f, 0x78, 0x90, 
  0x42, 0x5e, 0x78, 0x80, 0x42, 0x7f, 0x78, 0x90, 0x47, 0x5e, 0x82, 0x68, 0x80, 0x47, 0x7f, 0x82, 
  0x68, 0x90, 0x46, 0x5e, 0x78, 0x80, 0x46, 0x7f, 0x78, 0x90, 0x47, 0x5e, 0x78, 0x80, 0x47, 0x7f, 
  0x78, 0x90, 0x49, 0x5e, 0x82, 0x68, 0x80, 0x49, 0x7f, 0x78, 0x90, 0x44, 0x5e, 0x78, 0x80, 0x44, 
  0x7f, 0x78, 0x90, 0x45, 0x5e, 0x82, 0x68, 0x80, 0x45, 0x7f, 0x82, 0x68, 0x90, 0x44, 0x5e, 0x78, 
  0x80, 0x44, 0x7f, 0x78, 0x90, 0x45, 0x5e, 0x78, 0x80, 0x45, 0x7f, 0x78, 0x90, 0x47, 0x5e, 0x82, 
  0x68, 0x80, 0x47, 0x7f, 0x78, 0x90, 0x42, 0x5e, 0x78, 0x80, 0x42, 0x7f, 0x78, 0x90, 0x43, 0x5e, 
  0x82, 0x68, 0x80, 0x43, 0x7f, 0x78, 0x90, 0x40, 0x5e, 0x82, 0x68, 0x80, 0x40, 0x7f, 0x82, 0x68, 
  0x90, 0x4a, 0x5e, 0x81, 0x70, 0x80, 0x4a, 0x7f, 0x81, 0x70, 0x90, 0x4e, 0x5e, 0x81, 0x70, 0x80, 
  0x4e, 0x7f, 0x81, 0x70, 0x90, 0x51, 0x5e, 0x81, 0x70, 0x80, 0x51, 0x7f, 0x81, 0x70, 0x90, 0x50, 
  0x5e, 0x81, 0x70, 0x80, 0x50, 0x7f, 0x81, 0x70, 0x90, 0x4f, 0x5e, 0x81, 0x70, 0x80, 0x4f, 0x7f, 
  0x81, 0x70, 0x90, 0x4c, 0x5e, 0x78, 0x80, 0x4c, 0x7f, 0x78, 0x90, 0x49, 0x5e, 0x89, 0x30, 0x80, 
  0x49, 0x7f, 0x81, 0x70, 0x90, 0x39, 0x5e, 0x78, 0x80, 0x39, 0x7f, 0x78, 0x90, 0x38, 0x5e, 0x78, 
  0x80, 0x38, 0x7f, 0x78, 0x90, 0x39, 0x5e, 0x78, 0x80, 0x39, 0x7f, 0x78, 0x90, 0x40, 0x5e, 0x78, 
  0x80, 0x40, 0x7f, 0x78, 0x90, 0x40, 0x5e, 0x81, 0x70, 0x80, 0x40, 0x7f, 0x81, 0x70, 0x90, 0x43, 
  0x5e, 0x78, 0x80, 0x43, 0x7f, 0x78, 0x90, 0x42, 0x5e, 0x78, 0x80, 0x42, 0x7f, 0x78, 0x90, 0x3e, 
  0x5e, 0x78, 0x80, 0x3e, 0x7f, 0x78, 0x90, 0x3b, 0x5e, 0x78, 0x80, 0x3b, 0x7f, 0x78, 0x90, 0x39, 
  0x5e, 0x83, 0x60, 0x80, 0x39, 0x7f, 0x85, 0x50, 0x90, 0x3b, 0x5e, 0x78, 0x80, 0x3b, 0x7f, 0x78, 
  0x90, 0x3a, 0x5e, 0x78, 0x80, 0x3a, 0x7f, 0x78, 0x90, 0x3b, 0x5e, 0x78, 0x80, 0x3b, 0x7f, 0x78, 
  0x90, 0x3e, 0x5e, 0x81, 0x70, 0x80, 0x3e, 0x7f, 0x81, 0x70, 0x90, 0x3e, 0x5e, 0x81, 0x70, 0x80, 
  0x3e, 0x7f, 0x00, 0x90, 0x40, 0x5e, 0x81, 0x70, 0x80, 0x40, 0x7f, 0x81, 0x70, 0x90, 0x42, 0x5e, 
  0x78, 0x80, 0x42, 0x7f, 0x78, 0x90, 0x41, 0x5e, 0x78, 0x80, 0x41, 0x7f, 0x78, 0x90, 0x42, 0x5e, 
  0x78, 0x80, 0x42, 0x7f, 0x78, 0x90, 0x47, 0x5e, 0x81, 0x70, 0x80, 0x47, 0x7f, 0x81, 0x70, 0x90, 
  0x47, 0x5e, 0x81, 0x70, 0x80, 0x47, 0x7f, 0x00, 0x90, 0x42, 0x5e, 0x81, 0x70, 0x80, 0x42, 0x7f, 
  0x81, 0x70, 0x90, 0x40, 0x5e, 0x78, 0x80, 0x40, 0x7f, 0x78, 0x90, 0x3f, 0x5e, 0x78, 0x80, 0x3f, 
  0x7f, 0x78, 0x90, 0x40, 0x5e, 0x78, 0x80, 0x40, 0x7f, 0x78, 0x90, 0x45, 0x5e, 0x81, 0x70, 0x80, 
  0x45, 0x7f, 0x81, 0x70, 0x90, 0x45, 0x5e, 0x81, 0x70, 0x80, 0x45, 0x7f, 0x00, 0x90, 0x3d, 0x5e, 
  0x81, 0x70, 0x80, 0x3d, 0x7f, 0x81, 0x70, 0x90, 0x3e, 0x5e, 0x82, 0x68, 0x80, 0x3e, 0x7f, 0x88, 
  0x38, 0x90, 0x4a, 0x5e, 0x78, 0x80, 0x4a, 0x7f, 0x78, 0x90, 0x4c, 0x5e, 0x78, 0x80, 0x4c, 0x7f, 
  0x78, 0x90, 0x4e, 0x5e, 0x81, 0x70, 0x80, 0x4e, 0x7f, 0x81, 0x70, 0x90, 0x4a, 0x5e, 0x78, 0x80, 
  0x4a, 0x7f, 0x78, 0x90, 0x4c, 0x5e, 0x78, 0x80, 0x4c, 0x7f, 0x78, 0x90, 0x4e, 0x5e, 0x81, 0x70, 
  0x80, 0x4e, 0x7f, 0x81, 0x70, 0x90, 0x4a, 0x5e, 0x78, 0x80, 0x4a, 0x7f, 0x78, 0x90, 0x4e, 0x5e, 
  0x78, 0x80, 0x4e, 0x7f, 0x78, 0x90, 0x4c, 0x5e, 0x81, 0x70, 0x80, 0x4c, 0x7f, 0x81, 0x70, 0x90, 
  0x49, 0x5e, 0x81, 0x70, 0x80, 0x49, 0x7f, 0x85, 0x50, 0x90, 0x49, 0x5e, 0x78, 0x80, 0x49, 0x40, 
  0x78, 0x90, 0x4b, 0x5e, 0x78, 0x80, 0x4b, 0x7f, 0x78, 0x90, 0x4c, 0x5e, 0x81, 0x70, 0x80, 0x4c, 
  0x7f, 0x81, 0x70, 0x90, 0x50, 0x5e, 0x78, 0x80, 0x50, 0x7f, 0x78, 0x90, 0x4e, 0x5e, 0x81, 0x70, 
  0x80, 0x4e, 0x7f, 0x81, 0x70, 0x90, 0x4c, 0x5e, 0x78, 0x80, 0x4c, 0x7f, 0x78, 0x90, 0x4b, 0x5e, 
  0x78, 0x80, 0x4b, 0x7f, 0x78, 0x90, 0x4c, 0x5e, 0x78, 0x80, 0x4c, 0x7f, 0x78, 0x90, 0x4e, 0x5e, 
  0x85, 0x50, 0x80, 0x4e, 0x7f, 0x85, 0x50, 0x90, 0x42, 0x5e, 0x81, 0x70, 0x80, 0x42, 0x7f, 0x00, 
  0x90, 0x44, 0x5e, 0x81, 0x70, 0x80, 0x44, 0x7f, 0x00, 0x90, 0x45, 0x5e, 0x83, 0x60, 0x80, 0x45, 
  0x7f, 0x00, 0x90, 0x42, 0x5e, 0x81, 0x70, 0x80, 0x42, 0x7f, 0x00, 0x90, 0x44, 0x5e, 0x81, 0x70, 
  0x80, 0x44, 0x7f, 0x00, 0x90, 0x45, 0x5e, 0x83, 0x60, 0x80, 0x45, 0x7f, 0x00, 0x90, 0x42, 0x5e, 
  0x81, 0x70, 0x80, 0x42, 0x7f, 0x00, 0x90, 0x44, 0x5e, 0x81, 0x70, 0x80, 0x44, 0x7f, 0x00, 0x90, 
  0x45, 0x5e, 0x83, 0x60, 0x80, 0x45, 0x7f, 0x00, 0x90, 0x49, 0x5e, 0x81, 0x70, 0x80, 0x49, 0x7f, 
  0x00, 0x90, 0x47, 0x5e, 0x83, 0x60, 0x80, 0x47, 0x7f, 0x00, 0x90, 0x45, 0x5e, 0x81, 0x70, 0x80, 
  0x45, 0x7f, 0x00, 0x90, 0x44, 0x5e, 0x81, 0x70, 0x80, 0x44, 0x7f, 0x00, 0x90, 0x42, 0x5e, 0x81, 
  0x70, 0x80, 0x42, 0x7f, 0x00, 0x90, 0x40, 0x5e, 0x81, 0x70, 0x80, 0x40, 0x7f, 0x00, 0x90, 0x44, 
  0x5e, 0x81, 0x70, 0x80, 0x44, 0x7f, 0x00, 0x90, 0x47, 0x5e, 0x81, 0x70, 0x80, 0x47, 0x7f, 0x00, 
  0x90, 0x49, 0x5e, 0x81, 0x70, 0x80, 0x49, 0x7f, 0x00, 0x90, 0x4b, 0x5e, 0x83, 0x60, 0x80, 0x4b, 
  0x7f, 0x00, 0x90, 0x49, 0x5e, 0x83, 0x60, 0x80, 0x49, 0x7f, 0x00, 0x90, 0x42, 0x5e, 0x8b, 0x20, 
  0x80, 0x42, 0x7f, 0x83, 0x60, 0x90, 0x4c, 0x5e, 0x81, 0x70, 0x80, 0x4c, 0x7f, 0x81, 0x70, 0x90, 
  0x50, 0x5e, 0x81, 0x70, 0x80, 0x50, 0x7f, 0x81, 0x70, 0x90, 0x53, 0x5e, 0x81, 0x70, 0x80, 0x53, 
  0x7f, 0x81, 0x70, 0x90, 0x52, 0x5e, 0x81, 0x70, 0x80, 0x52, 0x7f, 0x81, 0x70, 0x90, 0x51, 0x5e, 
  0x81, 0x70, 0x80, 0x51, 0x7f, 0x81, 0x70, 0x90, 0x4e, 0x5e, 0x78, 0x80, 0x4e, 0x7f, 0x78, 0x90, 
  0x4b, 0x5e, 0x85, 0x50, 0x80, 0x4b, 0x7f, 0x85, 0x50, 0x90, 0x3b, 0x5e, 0x78, 0x80, 0x3b, 0x7f, 
  0x78, 0x90, 0x3a, 0x5e, 0x78, 0x80, 0x3a, 0x7f, 0x78, 0x90, 0x3b, 0x5e, 0x78, 0x80, 0x3b, 0x7f, 
  0x78, 0x90, 0x42, 0x5e, 0x78, 0x80, 0x42, 0x7f, 0x78, 0x90, 0x42, 0x5e, 0x81, 0x70, 0x80, 0x42, 
  0x7f, 0x81, 0x70, 0x90, 0x45, 0x5e, 0x78, 0x80, 0x45, 0x7f, 0x78, 0x90, 0x44, 0x5e, 0x78, 0x80, 
  0x44, 0x7f, 0x78, 0x90, 0x40, 0x5e, 0x78, 0x80, 0x40, 0x7f, 0x78, 0x90, 0x3d, 0x5e, 0x78, 0x80, 
  0x3d, 0x7f, 0x78, 0x90, 0x3b, 0x5e, 0x83, 0x60, 0x80, 0x3b, 0x7f, 0x85, 0x50, 0x90, 0x3d, 0x5e, 
  0x78, 0x80, 0x3d, 0x7f, 0x78, 0x90, 0x3c, 0x5e, 0x78, 0x80, 0x3c, 0x7f, 0x78, 0x90, 0x3d, 0x5e, 
  0x78, 0x80, 0x3d, 0x7f, 0x78, 0x90, 0x40, 0x5e, 0x81, 0x70, 0x80, 0x40, 0x7f, 0x81, 0x70, 0x90, 
  0x40, 0x5e, 0x81, 0x70, 0x80, 0x40, 0x7f, 0x00, 0x90, 0x42, 0x5e, 0x81, 0x70, 0x80, 0x42, 0x7f, 
  0x81, 0x70, 0x90, 0x44, 0x5e, 0x78, 0x80, 0x44, 0x7f, 0x78, 0x90, 0x43, 0x5e, 0x78, 0x80, 0x43, 
  0x7f, 0x78, 0x90, 0x44, 0x5e, 0x78, 0x80, 0x44, 0x7f, 0x78, 0x90, 0x49, 0x5e, 0x81, 0x70, 0x80, 
  0x49, 0x7f, 0x81, 0x70, 0x90, 0x49, 0x5e, 0x81, 0x70, 0x80, 0x49, 0x7f, 0x00, 0x90, 0x44, 0x5e, 
  0x81, 0x70, 0x80, 0x44, 0x7f, 0x81, 0x70, 0x90, 0x42, 0x5e, 0x78, 0x80, 0x42, 0x7f, 0x78, 0x90, 
  0x41, 0x5e, 0x78, 0x80, 0x41, 0x7f, 0x78, 0x90, 0x42, 0x5e, 0x78, 0x80, 0x42, 0x7f, 0x78, 0x90, 
  0x47, 0x5e, 0x81, 0x70, 0x80, 0x47, 0x7f, 0x81, 0x70, 0x90, 0x47, 0x5e, 0x81, 0x70, 0x80, 0x47, 
  0x7f, 0x00, 0x90, 0x3f, 0x5e, 0x81, 0x70, 0x80, 0x3f, 0x7f, 0x81, 0x70, 0x90, 0x40, 0x5e, 0x83, 
  0x60, 0x80, 0x40, 0x7f, 0x85, 0x50, 0x90, 0x4f, 0x51, 0x5a, 0x80, 0x4f, 0x7f, 0x81, 0x16, 0x90, 
  0x50, 0x51, 0x5a, 0x80, 0x50, 0x7f, 0x83, 0x06, 0x90, 0x4a, 0x5e, 0x81, 0x70, 0x80, 0x4a, 0x7f, 
  0x81, 0x70, 0x90, 0x4e, 0x5e, 0x81, 0x70, 0x80, 0x4e, 0x7f, 0x81, 0x70, 0x90, 0x51, 0x5e, 0x81, 
  0x70, 0x80, 0x51, 0x7f, 0x81, 0x70, 0x90, 0x50, 0x5e, 0x81, 0x70, 0x80, 0x50, 0x7f, 0x81, 0x70, 
  0x90, 0x4f, 0x5e, 0x81, 0x70, 0x80, 0x4f, 0x7f, 0x81, 0x70, 0x90, 0x4c, 0x5e, 0x78, 0x80, 0x4c, 
  0x7f, 0x78, 0x90, 0x49, 0x5e, 0x85, 0x50, 0x80, 0x49, 0x7f, 0x85, 0x50, 0x90, 0x39, 0x5e, 0x78, 
  0x80, 0x39, 0x7f, 0x78, 0x90, 0x38, 0x5e, 0x78, 0x80, 0x38, 0x7f, 0x78, 0x90, 0x39, 0x5e, 0x78, 
  0x80, 0x39, 0x7f, 0x78, 0x90, 0x40, 0x5e, 0x78, 0x80, 0x40, 0x7f, 0x78, 0x90, 0x40, 0x5e, 0x81, 
  0x70, 0x80, 0x40, 0x7f, 0x81, 0x70, 0x90, 0x43, 0x5e, 0x78, 0x80, 0x43, 0x7f, 0x78, 0x90, 0x42, 
  0x5e, 0x78, 0x80, 0x42, 0x7f, 0x78, 0x90, 0x3e, 0x5e, 0x78, 0x80, 0x3e, 0x7f, 0x78, 0x90, 0x3b, 
  0x5e, 0x78, 0x80, 0x3b, 0x7f, 0x78, 0x90, 0x39, 0x5e, 0x83, 0x60, 0x80, 0x39, 0x7f, 0x85, 0x50, 
  0x90, 0x3b, 0x5e, 0x78, 0x80, 0x3b, 0x7f, 0x78, 0x90, 0x3a, 0x5e, 0x78, 0x80, 0x3a, 0x7f, 0x78, 
  0x90, 0x3b, 0x5e, 0x78, 0x80, 0x3b, 0x7f, 0x78, 0x90, 0x3e, 0x5e, 0x81, 0x70, 0x80, 0x3e, 0x7f, 
  0x81, 0x70, 0x90, 0x3e, 0x5e, 0x81, 0x70, 0x80, 0x3e, 0x7f, 0x00, 0x90, 0x40, 0x5e, 0x82, 0x68, 
  0x80, 0x40, 0x7f, 0x78, 0x90, 0x42, 0x5e, 0x78, 0x80, 0x42, 0x7f, 0x78, 0x90, 0x41, 0x5e, 0x78, 
  0x80, 0x41, 0x7f, 0x78, 0x90, 0x42, 0x5e, 0x78, 0x80, 0x42, 0x7f, 0x78, 0x90, 0x47, 0x5e, 0x82, 
  0x68, 0x80, 0x47, 0x7f, 0x82, 0x68, 0x90, 0x46, 0x5e, 0x78, 0x80, 0x46, 0x7f, 0x78, 0x90, 0x47, 
  0x5e, 0x78, 0x80, 0x47, 0x7f, 0x78, 0x90, 0x49, 0x5e, 0x82, 0x68, 0x80, 0x49, 0x7f, 0x78, 0x90, 
  0x44, 0x5e, 0x78, 0x80, 0x44, 0x7f, 0x78, 0x90, 0x45, 0x5e, 0x82, 0x68, 0x80, 0x45, 0x7f, 0x82, 
  0x68, 0x90, 0x44, 0x5e, 0x78, 0x80, 0x44, 0x7f, 0x78, 0x90, 0x45, 0x5e, 0x78, 0x80, 0x45, 0x7f, 
  0x78, 0x90, 0x47, 0x5e, 0x82, 0x68, 0x80, 0x47, 0x7f, 0x78, 0x90, 0x42, 0x5e, 0x78, 0x80, 0x42, 
  0x7f, 0x78, 0x90, 0x43, 0x5e, 0x82, 0x68, 0x80, 0x43, 0x7f, 0x78, 0x90, 0x40, 0x5e, 0x82, 0x68, 
  0x80, 0x40, 0x7f, 0x82, 0x68, 0x90, 0x4a, 0x5e, 0x81, 0x70, 0x80, 0x4a, 0x7f, 0x81, 0x70, 0x90, 
  0x4e, 0x5e, 0x81, 0x70, 0x80, 0x4e, 0x7f, 0x81, 0x70, 0x90, 0x51, 0x5e, 0x81, 0x70, 0x80, 0x51, 
  0x7f, 0x81, 0x70, 0x90, 0x50, 0x5e, 0x81, 0x70, 0x80, 0x50, 0x7f, 0x81, 0x70, 0x90, 0x4f, 0x5e, 
  0x81, 0x70, 0x80, 0x4f, 0x7f, 0x81, 0x70, 0x90, 0x4c, 0x5e, 0x78, 0x80, 0x4c, 0x7f, 0x78, 0x90, 
  0x49, 0x5e, 0x89, 0x30, 0x80, 0x49, 0x7f, 0x81, 0x70, 0x90, 0x39, 0x5e, 0x78, 0x80, 0x39, 0x7f, 
  0x78, 0x90, 0x38, 0x5e, 0x78, 0x80, 0x38, 0x7f, 0x78, 0x90, 0x39, 0x5e, 0x78, 0x80, 0x39, 0x7f, 
  0x78, 0x90, 0x40, 0x5e, 0x78, 0x80, 0x40, 0x7f, 0x78, 0x90, 0x40, 0x5e, 0x81, 0x70, 0x80, 0x40, 
  0x7f, 0x81, 0x70, 0x90, 0x43, 0x5e, 0x78, 0x80, 0x43, 0x7f, 0x78, 0x90, 0x42, 0x5e, 0x78, 0x80, 
  0x42, 0x7f, 0x78, 0x90, 0x3e, 0x5e, 0x78, 0x80, 0x3e, 0x7f, 0x78, 0x90, 0x3b, 0x5e, 0x78, 0x80, 
  0x3b, 0x7f, 0x78, 0x90, 0x39, 0x5e, 0x83, 0x60, 0x80, 0x39, 0x7f, 0x85, 0x50, 0x90, 0x3b, 0x5e, 
  0x78, 0x80, 0x3b, 0x7f, 0x78, 0x90, 0x3a, 0x5e, 0x78, 0x80, 0x3a, 0x7f, 0x78, 0x90, 0x3b, 0x5e, 
  0x78, 0x80, 0x3b, 0x7f, 0x78, 0x90, 0x3e, 0x5e, 0x81, 0x70, 0x80, 0x3e, 0x7f, 0x81, 0x70, 0x90, 
  0x3e, 0x5e, 0x81, 0x70, 0x80, 0x3e, 0x7f, 0x00, 0x90, 0x40, 0x5e, 0x81, 0x70, 0x80, 0x40, 0x7f, 
  0x81, 0x70, 0x90, 0x42, 0x5e, 0x78, 0x80, 0x42, 0x7f, 0x78, 0x90, 0x41, 0x5e, 0x78, 0x80, 0x41, 
  0x7f, 0x78, 0x90, 0x42, 0x5e, 0x78, 0x80, 0x42, 0x7f, 0x78, 0x90, 0x47, 0x5e, 0x81, 0x70, 0x80, 
  0x47, 0x7f, 0x81, 0x70, 0x90, 0x47, 0x5e, 0x81, 0x70, 0x80, 0x47, 0x7f, 0x00, 0x90, 0x42, 0x5e, 
  0x81, 0x70, 0x80, 0x42, 0x7f, 0x81, 0x70, 0x90, 0x40, 0x5e, 0x78, 0x80, 0x40, 0x7f, 0x78, 0x90, 
  0x3f, 0x5e, 0x78, 0x80, 0x3f, 0x7f, 0x78, 0x90, 0x40, 0x5e, 0x78, 0x80, 0x40, 0x7f, 0x78, 0x90, 
  0x45, 0x5e, 0x81, 0x70, 0x80, 0x45, 0x7f, 0x81, 0x70, 0x90, 0x45, 0x5e, 0x81, 0x70, 0x80, 0x45, 
  0x7f, 0x00, 0x90, 0x3d, 0x5e, 0x81, 0x70, 0x80, 0x3d, 0x7f, 0x81, 0x70, 0x90, 0x3e, 0x5e, 0x82, 
  0x68, 0x80, 0x3e, 0x7f, 0x88, 0x38, 0x90, 0x4a, 0x5e, 0x78, 0x80, 0x4a, 0x7f, 0x78, 0x90, 0x4c, 
  0x5e, 0x78, 0x80, 0x4c, 0x7f, 0x78, 0x90, 0x4e, 0x5e, 0x81, 0x70, 0x80, 0x4e, 0x7f, 0x81, 0x70, 
  0x90, 0x4a, 0x5e, 0x78, 0x80, 0x4a, 0x7f, 0x78, 0x90, 0x4c, 0x5e, 0x78, 0x80, 0x4c, 0x7f, 0x78, 
  0x90, 0x4e, 0x5e, 0x81, 0x70, 0x80, 0x4e, 0x7f, 0x81, 0x70, 0x90, 0x4a, 0x5e, 0x78, 0x80, 0x4a, 
  0x7f, 0x78, 0x90, 0x4e, 0x5e, 0x78, 0x80, 0x4e, 0x7f, 0x78, 0x90, 0x4c, 0x5e, 0x81, 0x70, 0x80, 
  0x4c, 0x7f, 0x81, 0x70, 0x90, 0x49, 0x5e, 0x81, 0x70, 0x80, 0x49, 0x7f, 0x85, 0x50, 0x90, 0x49, 
  0x5e, 0x78, 0x80, 0x49, 0x40, 0x78, 0x90, 0x4b, 0x5e, 0x78, 0x80, 0x4b, 0x7f, 0x78, 0x90, 0x4c, 
  0x5e, 0x81, 0x70, 0x80, 0x4c, 0x7f, 0x81, 0x70, 0x90, 0x50, 0x5e, 0x78, 0x80, 0x50, 0x7f, 0x78, 
  0x90, 0x4e, 0x5e, 0x81, 0x70, 0x80, 0x4e, 0x7f, 0x81, 0x70, 0x90, 0x4c, 0x5e, 0x78, 0x80, 0x4c, 
  0x7f, 0x78, 0x90, 0x4b, 0x5e, 0x78, 0x80, 0x4b, 0x7f, 0x78, 0x90, 0x4c, 0x5e, 0x78, 0x80, 0x4c, 
  0x7f, 0x78, 0x90, 0x4e, 0x5e, 0x85, 0x50, 0x80, 0x4e, 0x7f, 0x85, 0x50, 0x90, 0x42, 0x5e, 0x81, 
  0x70, 0x80, 0x42, 0x7f, 0x00, 0x90, 0x44, 0x5e, 0x81, 0x70, 0x80, 0x44, 0x7f, 0x00, 0x90, 0x45, 
  0x5e, 0x83, 0x60, 0x80, 0x45, 0x7f, 0x00, 0x90, 0x42, 0x5e, 0x81, 0x70, 0x80, 0x42, 0x7f, 0x00, 
  0x90, 0x44, 0x5e, 0x81, 0x70, 0x80, 0x44, 0x7f, 0x00, 0x90, 0x45, 0x5e, 0x83, 0x60, 0x80, 0x45, 
  0x7f, 0x00, 0x90, 0x42, 0x5e, 0x81, 0x70, 0x80, 0x42, 0x7f, 0x00, 0x90, 0x44, 0x5e, 0x81, 0x70, 
  0x80, 0x44, 0x7f, 0x00, 0x90, 0x45, 0x5e, 0x83, 0x60, 0x80, 0x45, 0x7f, 0x00, 0x90, 0x49, 0x5e, 
  0x81, 0x70, 0x80, 0x49, 0x7f, 0x00, 0x90, 0x47, 0x5e, 0x83, 0x60, 0x80, 0x47, 0x7f, 0x00, 0x90, 
  0x45, 0x5e, 0x81, 0x70, 0x80, 0x45, 0x7f, 0x00, 0x90, 0x44, 0x5e, 0x81, 0x70, 0x80, 0x44, 0x7f, 
  0x00, 0x90, 0x42, 0x5e, 0x81, 0x70, 0x80, 0x42, 0x7f, 0x00, 0x90, 0x40, 0x5e, 0x81, 0x70, 0x80, 
  0x40, 0x7f, 0x00, 0x90, 0x44, 0x5e, 0x81, 0x70, 0x80, 0x44, 0x7f, 0x00, 0x90, 0x47, 0x5e, 0x81, 
  0x70, 0x80, 0x47, 0x7f, 0x00, 0x90, 0x49, 0x5e, 0x81, 0x70, 0x80, 0x49, 0x7f, 0x00, 0x90, 0x4b, 
  0x5e, 0x83, 0x60, 0x80, 0x4b, 0x7f, 0x00, 0x90, 0x49, 0x5e, 0x83, 0x60, 0x80, 0x49, 0x7f, 0x00, 
  0x90, 0x42, 0x5e, 0x8b, 0x20, 0x80, 0x42, 0x7f, 0x83, 0x60, 0x90, 0x4c, 0x5e, 0x81, 0x70, 0x80, 
  0x4c, 0x7f, 0x81, 0x70, 0x90, 0x50, 0x5e, 0x81, 0x70, 0x80, 0x50, 0x7f, 0x81, 0x70, 0x90, 0x53, 
  0x5e, 0x81, 0x70, 0x80, 0x53, 0x7f, 0x81, 0x70, 0x90, 0x52, 0x5e, 0x81, 0x70, 0x80, 0x52, 0x7f, 
  0x81, 0x70, 0x90, 0x51, 0x5e, 0x81, 0x70, 0x80, 0x51, 0x7f, 0x81, 0x70, 0x90, 0x4e, 0x5e, 0x78, 
  0x80, 0x4e, 0x7f, 0x78, 0x90, 0x4b, 0x5e, 0x85, 0x50, 0x80, 0x4b, 0x7f, 0x85, 0x50, 0x90, 0x3b, 
  0x5e, 0x78, 0x80, 0x3b, 0x7f, 0x78, 0x90, 0x3a, 0x5e, 0x78, 0x80, 0x3a, 0x7f, 0x78, 0x90, 0x3b, 
  0x5e, 0x78, 0x80, 0x3b, 0x7f, 0x78, 0x90, 0x42, 0x5e, 0x78, 0x80, 0x42, 0x7f, 0x78, 0x90, 0x42, 
  0x5e, 0x81, 0x70, 0x80, 0x42, 0x7f, 0x81, 0x70, 0x90, 0x45, 0x5e, 0x78, 0x80, 0x45, 0x7f, 0x78, 
  0x90, 0x44, 0x5e, 0x78, 0x80, 0x44, 0x7f, 0x78, 0x90, 0x40, 0x5e, 0x78, 0x80, 0x40, 0x7f, 0x78, 
  0x90, 0x3d, 0x5e, 0x78, 0x80, 0x3d, 0x7f, 0x78, 0x90, 0x3b, 0x5e, 0x83, 0x60, 0x80, 0x3b, 0x7f, 
  0x85, 0x50, 0x90, 0x3d, 0x5e, 0x78, 0x80, 0x3d, 0x7f, 0x78, 0x90, 0x3c, 0x5e, 0x78, 0x80, 0x3c, 
  0x7f, 0x78, 0x90, 0x3d, 0x5e, 0x78, 0x80, 0x3d, 0x7f, 0x78, 0x90, 0x40, 0x5e, 0x81, 0x70, 0x80, 
  0x40, 0x7f, 0x81, 0x70, 0x90, 0x40, 0x5e, 0x81, 0x70, 0x80, 0x40, 0x7f, 0x00, 0x90, 0x42, 0x5e, 
  0x81, 0x70, 0x80, 0x42, 0x7f, 0x81, 0x70, 0x90, 0x44, 0x5e, 0x78, 0x80, 0x44, 0x7f, 0x78, 0x90, 
  0x43, 0x5e, 0x78, 0x80, 0x43, 0x7f, 0x78, 0x90, 0x44, 0x5e, 0x78, 0x80, 0x44, 0x7f, 0x78, 0x90, 
  0x49, 0x5e, 0x81, 0x70, 0x80, 0x49, 0x7f, 0x81, 0x70, 0x90, 0x49, 0x5e, 0x81, 0x70, 0x80, 0x49, 
  0x7f, 0x00, 0x90, 0x44, 0x5e, 0x81, 0x70, 0x80, 0x44, 0x7f, 0x81, 0x70, 0x90, 0x42, 0x5e, 0x78, 
  0x80, 0x42, 0x7f, 0x78, 0x90, 0x41, 0x5e, 0x78, 0x80, 0x41, 0x7f, 0x78, 0x90, 0x42, 0x5e, 0x78, 
  0x80, 0x42, 0x7f, 0x78, 0x90, 0x47, 0x5e, 0x81, 0x70, 0x80, 0x47, 0x7f, 0x81, 0x70, 0x90, 0x47, 
  0x5e, 0x81, 0x70, 0x80, 0x47, 0x7f, 0x00, 0x90, 0x3f, 0x5e, 0x81, 0x70, 0x80, 0x3f, 0x7f, 0x81, 
  0x70, 0x90, 0x40, 0x5e, 0x83, 0x60, 0x80, 0x40, 0x7f, 0x85, 0x50, 0x90, 0x4f, 0x51, 0x5a, 0x80, 
  0x4f, 0x7f, 0x81, 0x16, 0x90, 0x50, 0x51, 0x5a, 0x80, 0x50, 0x7f, 0x92, 0x06, 0xff, 0x2f, 0x00
};

unsigned long read_var_len(unsigned char track_id) {
    unsigned long value = 0;
    register unsigned char c;
    do {
        c = *tracks[track_id].ptr++;
        value = (value << 7) | (c & 0x7F);
    } while (c & 0x80);
    return value;
}

void play_midi() {
    const unsigned char* base_ptr = midi_file;
    unsigned int format;
    register unsigned char i;
    unsigned long chunk_len;
    unsigned char tracks_running;
    unsigned long current_tick;
    
    if (base_ptr[0] != 'M' || base_ptr[1] != 'T') return;
    base_ptr += 8; 
    
    format = (base_ptr[0] << 8) | base_ptr[1]; base_ptr += 2;
    num_tracks = (base_ptr[0] << 8) | base_ptr[1]; base_ptr += 2;
    ppqn = (base_ptr[0] << 8) | base_ptr[1]; base_ptr += 2; 

    if (num_tracks > MAX_TRACKS) num_tracks = MAX_TRACKS;

    for(i=0; i<num_tracks; ++i) {
        while(!(base_ptr[0] == 'M' && base_ptr[1] == 'T' && base_ptr[2] == 'r' && base_ptr[3] == 'k')) {
            base_ptr++; 
        }
        base_ptr += 4; 
        
        chunk_len = ((unsigned long)base_ptr[0] << 24) | ((unsigned long)base_ptr[1] << 16) |
                    ((unsigned long)base_ptr[2] << 8) | base_ptr[3];
        base_ptr += 4;

        tracks[i].ptr = base_ptr;
        tracks[i].running_status = 0;
        tracks[i].finished = 0;
        tracks[i].absolute_event_time = read_var_len(i);
        
        base_ptr += chunk_len;
    }

    for(i=0; i<16; ++i) channel_instrument[i] = 0;
    sid_init();
    
    /* Setup IRQ */
    recalc_timing();
    set_irq(&irq_handler2, NULL, 0);
    
    /* Enable CIA1 Timer A Interrupts */
    __asm__("sei");
    CIA1_ICR = 0x81; /* Enable Timer A (bit 0 + set bit 7) */
    CIA1_CRA = 0x11; /* Load Latch, Start Timer, Continuous Mode */
    __asm__("cli");

    while(1) {
        tracks_running = 0;
        
        /* 1. Poll Atomic Clock */
        current_tick = get_master_tick();

        /* 2. Check all tracks */
        for(i=0; i<num_tracks; ++i) {
            if (tracks[i].finished) continue;
            
            tracks_running = 1;

            /* Check if track is ready to fire */
            if (!tracks[i].finished && current_tick >= tracks[i].absolute_event_time) {
                
                unsigned char status = *tracks[i].ptr++;
                
                if (status == 0xFF) {
                    unsigned char type = *tracks[i].ptr++;
                    unsigned long len = read_var_len(i);
                    
                    if (type == 0x2F) {
                        tracks[i].finished = 1;
                    } 
                    else if (type == 0x51 && len == 3) {
                        unsigned char t1 = *tracks[i].ptr++;
                        unsigned char t2 = *tracks[i].ptr++;
                        unsigned char t3 = *tracks[i].ptr++;
                        mpqn = ((unsigned long)t1 << 16) | ((unsigned int)t2 << 8) | t3;
                        recalc_timing();
                    }
                    else {
                        tracks[i].ptr += len;
                    }
                }
                else {
                    unsigned char cmd, ch, note, vel;
                    
                    if (status < 0x80) {
                        status = tracks[i].running_status;
                        tracks[i].ptr--;
                    } else {
                        tracks[i].running_status = status;
                    }

                    cmd = status & 0xF0;
                    ch = status & 0x0F;

                    if (cmd == 0x90) {
                        note = *tracks[i].ptr++;
                        vel = *tracks[i].ptr++;
                        if (vel > 0) play_note(ch, note, vel);
                        else stop_note(ch, note);
                    }
                    else if (cmd == 0x80) {
                        note = *tracks[i].ptr++;
                        vel = *tracks[i].ptr++;
                        stop_note(ch, note);
                    }
                    else if (cmd == 0xC0) {
                        channel_instrument[ch] = *tracks[i].ptr++;
                    }
                    else if (cmd == 0xB0 || cmd == 0xE0) {
                        tracks[i].ptr++; tracks[i].ptr++;
                    }
                    else {
                        tracks[i].ptr++;
                    }
                }

                if (!tracks[i].finished) {
                    tracks[i].absolute_event_time += read_var_len(i);
                }
            }
        }

        if (!tracks_running) break; 
    }
    
    /* Cleanup IRQ */
    __asm__("sei");
    CIA1_CRA = 0x00;
    CIA1_ICR = 0x7F;
    __asm__("cli");
}

void main(void) {
    sid_init();
    printf("%c", 147);
    printf("PLAYING (IRQ TIMING)...\n");
    
    while(1) {
        play_midi();
        {
            /* Delay */
            unsigned int w = 60000L;
            while(w--) __asm__("nop");
        }
    }
}